<?xml version="1.0" encoding="UTF-8" standalone="no"?>
<!DOCTYPE svg PUBLIC "-//W3C//DTD SVG 1.1//EN"
 "http://www.w3.org/Graphics/SVG/1.1/DTD/svg11.dtd">
<!-- Generated by graphviz version 2.36.0 (20140111.2315)
 -->
<!-- Title: G Pages: 1 -->
<svg width="283pt" height="347pt"
 viewBox="0.00 0.00 282.67 346.67" xmlns="http://www.w3.org/2000/svg" xmlns:xlink="http://www.w3.org/1999/xlink">
<g id="graph0" class="graph" transform="scale(1.33333 1.33333) rotate(0) translate(4 256)">
<title>G</title>
<polygon fill="white" stroke="none" points="-4,4 -4,-256 208,-256 208,4 -4,4"/>
<!-- Router_r3 -->
<g id="node1" class="node"><title>Router_r3</title>
<ellipse fill="none" stroke="black" cx="102" cy="-162" rx="47.169" ry="18"/>
<text text-anchor="middle" x="102" y="-158.3" font-family="Times,serif" font-size="14.00">Router_r3</text>
</g>
<!-- Router_r1 -->
<g id="node2" class="node"><title>Router_r1</title>
<ellipse fill="none" stroke="black" cx="102" cy="-90" rx="47.169" ry="18"/>
<text text-anchor="middle" x="102" y="-86.3" font-family="Times,serif" font-size="14.00">Router_r1</text>
</g>
<!-- Router_r3&#45;&gt;Router_r1 -->
<g id="edge1" class="edge"><title>Router_r3&#45;&gt;Router_r1</title>
<path fill="none" stroke="black" d="M102,-143.697C102,-135.983 102,-126.712 102,-118.112"/>
<polygon fill="black" stroke="black" points="105.5,-118.104 102,-108.104 98.5001,-118.104 105.5,-118.104"/>
</g>
<!-- Computer_c1 -->
<g id="node3" class="node"><title>Computer_c1</title>
<ellipse fill="none" stroke="black" cx="102" cy="-18" rx="60.1672" ry="18"/>
<text text-anchor="middle" x="102" y="-14.3" font-family="Times,serif" font-size="14.00">Computer_c1</text>
</g>
<!-- Router_r1&#45;&gt;Computer_c1 -->
<g id="edge2" class="edge"><title>Router_r1&#45;&gt;Computer_c1</title>
<path fill="none" stroke="black" d="M102,-71.6966C102,-63.9827 102,-54.7125 102,-46.1124"/>
<polygon fill="black" stroke="black" points="105.5,-46.1043 102,-36.1043 98.5001,-46.1044 105.5,-46.1043"/>
</g>
<!-- Server_s1 -->
<g id="node4" class="node"><title>Server_s1</title>
<ellipse fill="none" stroke="black" cx="46" cy="-234" rx="46.1964" ry="18"/>
<text text-anchor="middle" x="46" y="-230.3" font-family="Times,serif" font-size="14.00">Server_s1</text>
</g>
<!-- Server_s1&#45;&gt;Router_r3 -->
<g id="edge3" class="edge"><title>Server_s1&#45;&gt;Router_r3</title>
<path fill="none" stroke="black" d="M59.2712,-216.411C66.1756,-207.781 74.7503,-197.062 82.4023,-187.497"/>
<polygon fill="black" stroke="black" points="85.3101,-189.465 88.824,-179.47 79.844,-185.092 85.3101,-189.465"/>
</g>
<!-- Server_s2 -->
<g id="node5" class="node"><title>Server_s2</title>
<ellipse fill="none" stroke="black" cx="158" cy="-234" rx="46.1964" ry="18"/>
<text text-anchor="middle" x="158" y="-230.3" font-family="Times,serif" font-size="14.00">Server_s2</text>
</g>
<!-- Server_s2&#45;&gt;Router_r3 -->
<g id="edge4" class="edge"><title>Server_s2&#45;&gt;Router_r3</title>
<path fill="none" stroke="black" d="M144.729,-216.411C137.824,-207.781 129.25,-197.062 121.598,-187.497"/>
<polygon fill="black" stroke="black" points="124.156,-185.092 115.176,-179.47 118.69,-189.465 124.156,-185.092"/>
</g>
</g>
</svg>
