<?xml version="1.0" encoding="UTF-8" standalone="no"?>
<!DOCTYPE svg PUBLIC "-//W3C//DTD SVG 1.1//EN"
 "http://www.w3.org/Graphics/SVG/1.1/DTD/svg11.dtd">
<!-- Generated by graphviz version 2.36.0 (20140111.2315)
 -->
<!-- Title: G Pages: 1 -->
<svg width="1041pt" height="443pt"
 viewBox="0.00 0.00 1041.33 442.67" xmlns="http://www.w3.org/2000/svg" xmlns:xlink="http://www.w3.org/1999/xlink">
<g id="graph0" class="graph" transform="scale(1.33333 1.33333) rotate(0) translate(4 328)">
<title>G</title>
<polygon fill="white" stroke="none" points="-4,4 -4,-328 777,-328 777,4 -4,4"/>
<!-- Consumer_c2 -->
<g id="node1" class="node"><title>Consumer_c2</title>
<ellipse fill="none" stroke="red" cx="122" cy="-90" rx="61.1419" ry="18"/>
<text text-anchor="middle" x="122" y="-86.3" font-family="Times,serif" font-size="14.00">Consumer_c2</text>
</g>
<!-- Computer_c1 -->
<g id="node7" class="node"><title>Computer_c1</title>
<ellipse fill="none" stroke="blue" cx="338" cy="-18" rx="60.1672" ry="18"/>
<text text-anchor="middle" x="338" y="-14.3" font-family="Times,serif" font-size="14.00">Computer_c1</text>
</g>
<!-- Consumer_c2&#45;&gt;Computer_c1 -->
<g id="edge15" class="edge"><title>Consumer_c2&#45;&gt;Computer_c1</title>
<path fill="none" stroke="purple" d="M158.189,-75.5033C193.263,-63.6002 246.645,-46.2795 286.195,-33.9576"/>
<polygon fill="purple" stroke="purple" points="287.417,-37.2431 295.932,-30.939 285.345,-30.557 287.417,-37.2431"/>
</g>
<!-- Consumer_c2&#45;&gt;Computer_c1 -->
<g id="edge24" class="edge"><title>Consumer_c2&#45;&gt;Computer_c1</title>
<path fill="none" stroke="purple" d="M164.374,-76.9666C201.138,-65.6274 254.103,-48.5303 291.906,-35.8393"/>
<polygon fill="purple" stroke="purple" points="293.298,-39.0634 301.654,-32.5499 291.06,-32.4308 293.298,-39.0634"/>
</g>
<!-- Provider_p3 -->
<g id="node2" class="node"><title>Provider_p3</title>
<ellipse fill="none" stroke="red" cx="55" cy="-306" rx="55.3436" ry="18"/>
<text text-anchor="middle" x="55" y="-302.3" font-family="Times,serif" font-size="14.00">Provider_p3</text>
</g>
<!-- Provider_p3&#45;&gt;Computer_c1 -->
<g id="edge17" class="edge"><title>Provider_p3&#45;&gt;Computer_c1</title>
<path fill="none" stroke="purple" d="M65.8559,-288.036C92.7006,-247.044 165.926,-140.911 247,-72 262.398,-58.9124 281.463,-47.246 298.159,-38.2134"/>
<polygon fill="purple" stroke="purple" points="299.937,-41.2326 307.152,-33.474 296.674,-35.0399 299.937,-41.2326"/>
</g>
<!-- Server_s2 -->
<g id="node8" class="node"><title>Server_s2</title>
<ellipse fill="none" stroke="blue" cx="338" cy="-234" rx="46.1964" ry="18"/>
<text text-anchor="middle" x="338" y="-230.3" font-family="Times,serif" font-size="14.00">Server_s2</text>
</g>
<!-- Provider_p3&#45;&gt;Server_s2 -->
<g id="edge23" class="edge"><title>Provider_p3&#45;&gt;Server_s2</title>
<path fill="none" stroke="purple" d="M96.5829,-294.01C104.359,-291.987 112.422,-289.912 120,-288 178.161,-273.325 245.239,-257.126 289.457,-246.547"/>
<polygon fill="purple" stroke="purple" points="290.446,-249.91 299.358,-244.181 288.819,-243.101 290.446,-249.91"/>
</g>
<!-- Provider_p2 -->
<g id="node3" class="node"><title>Provider_p2</title>
<ellipse fill="none" stroke="red" cx="325" cy="-306" rx="55.3436" ry="18"/>
<text text-anchor="middle" x="325" y="-302.3" font-family="Times,serif" font-size="14.00">Provider_p2</text>
</g>
<!-- Provider_p2&#45;&gt;Server_s2 -->
<g id="edge20" class="edge"><title>Provider_p2&#45;&gt;Server_s2</title>
<path fill="none" stroke="purple" d="M322.298,-287.697C322.942,-279.898 324.463,-270.509 326.434,-261.829"/>
<polygon fill="purple" stroke="purple" points="329.834,-262.66 328.928,-252.104 323.053,-260.921 329.834,-262.66"/>
</g>
<!-- Provider_p2&#45;&gt;Server_s2 -->
<g id="edge22" class="edge"><title>Provider_p2&#45;&gt;Server_s2</title>
<path fill="none" stroke="purple" d="M334.025,-288.055C336.275,-280.346 338.248,-271.027 339.523,-262.364"/>
<polygon fill="purple" stroke="purple" points="343.018,-262.615 340.705,-252.275 336.065,-261.8 343.018,-262.615"/>
</g>
<!-- Consumer_c1 -->
<g id="node4" class="node"><title>Consumer_c1</title>
<ellipse fill="none" stroke="red" cx="190" cy="-306" rx="61.1419" ry="18"/>
<text text-anchor="middle" x="190" y="-302.3" font-family="Times,serif" font-size="14.00">Consumer_c1</text>
</g>
<!-- Consumer_c1&#45;&gt;Computer_c1 -->
<g id="edge25" class="edge"><title>Consumer_c1&#45;&gt;Computer_c1</title>
<path fill="none" stroke="purple" d="M203.29,-288.212C210.636,-278.2 219.386,-264.95 225,-252 257.715,-176.535 223.02,-140.862 268,-72 276.399,-59.1424 289.028,-48.1962 301.258,-39.6484"/>
<polygon fill="purple" stroke="purple" points="303.201,-42.5602 309.604,-34.1198 299.335,-36.7244 303.201,-42.5602"/>
</g>
<!-- Consumer_c1&#45;&gt;Server_s2 -->
<g id="edge19" class="edge"><title>Consumer_c1&#45;&gt;Server_s2</title>
<path fill="none" stroke="purple" d="M221.026,-290.326C244.073,-279.425 275.632,-264.499 300.161,-252.897"/>
<polygon fill="purple" stroke="purple" points="301.978,-255.909 309.522,-248.47 298.985,-249.581 301.978,-255.909"/>
</g>
<!-- Consumer_c3 -->
<g id="node5" class="node"><title>Consumer_c3</title>
<ellipse fill="none" stroke="red" cx="338" cy="-90" rx="61.1419" ry="18"/>
<text text-anchor="middle" x="338" y="-86.3" font-family="Times,serif" font-size="14.00">Consumer_c3</text>
</g>
<!-- Consumer_c3&#45;&gt;Computer_c1 -->
<g id="edge16" class="edge"><title>Consumer_c3&#45;&gt;Computer_c1</title>
<path fill="none" stroke="purple" d="M332.122,-72.055C331.304,-64.3456 331.061,-55.0269 331.395,-46.3642"/>
<polygon fill="purple" stroke="purple" points="334.894,-46.4915 332.087,-36.2753 327.911,-46.0122 334.894,-46.4915"/>
</g>
<!-- Consumer_c3&#45;&gt;Computer_c1 -->
<g id="edge26" class="edge"><title>Consumer_c3&#45;&gt;Computer_c1</title>
<path fill="none" stroke="purple" d="M343.878,-72.055C344.696,-64.3456 344.939,-55.0269 344.605,-46.3642"/>
<polygon fill="purple" stroke="purple" points="348.089,-46.0122 343.913,-36.2753 341.106,-46.4915 348.089,-46.0122"/>
</g>
<!-- Provider_p1 -->
<g id="node6" class="node"><title>Provider_p1</title>
<ellipse fill="none" stroke="red" cx="455" cy="-306" rx="55.3436" ry="18"/>
<text text-anchor="middle" x="455" y="-302.3" font-family="Times,serif" font-size="14.00">Provider_p1</text>
</g>
<!-- Provider_p1&#45;&gt;Server_s2 -->
<g id="edge18" class="edge"><title>Provider_p1&#45;&gt;Server_s2</title>
<path fill="none" stroke="purple" d="M425.47,-290.666C407.428,-280.651 384.59,-267.121 366.707,-255.907"/>
<polygon fill="purple" stroke="purple" points="368.176,-252.694 357.858,-250.285 364.422,-258.602 368.176,-252.694"/>
</g>
<!-- Provider_p1&#45;&gt;Server_s2 -->
<g id="edge21" class="edge"><title>Provider_p1&#45;&gt;Server_s2</title>
<path fill="none" stroke="purple" d="M434.212,-289.116C417.739,-278.53 394.51,-264.578 374.941,-253.492"/>
<polygon fill="purple" stroke="purple" points="376.396,-250.296 365.961,-248.466 372.977,-256.404 376.396,-250.296"/>
</g>
<!-- Router_r3 -->
<g id="node10" class="node"><title>Router_r3</title>
<ellipse fill="none" stroke="blue" cx="457" cy="-162" rx="47.169" ry="18"/>
<text text-anchor="middle" x="457" y="-158.3" font-family="Times,serif" font-size="14.00">Router_r3</text>
</g>
<!-- Server_s2&#45;&gt;Router_r3 -->
<g id="edge6" class="edge"><title>Server_s2&#45;&gt;Router_r3</title>
<path fill="none" stroke="black" d="M358.416,-217.638C375.288,-206.959 399.466,-192.673 419.719,-181.387"/>
<polygon fill="black" stroke="black" points="421.637,-184.326 428.708,-176.437 418.26,-178.195 421.637,-184.326"/>
</g>
<!-- Server_s2&#45;&gt;Router_r3 -->
<g id="edge29" class="edge"><title>Server_s2&#45;&gt;Router_r3</title>
<path fill="none" stroke="green" d="M366.098,-219.669C384.759,-209.532 409.051,-195.399 427.899,-183.782"/>
<polygon fill="green" stroke="green" points="429.769,-186.741 436.4,-178.478 426.063,-180.802 429.769,-186.741"/>
</g>
<!-- Router_r1 -->
<g id="node9" class="node"><title>Router_r1</title>
<ellipse fill="none" stroke="blue" cx="465" cy="-90" rx="47.169" ry="18"/>
<text text-anchor="middle" x="465" y="-86.3" font-family="Times,serif" font-size="14.00">Router_r1</text>
</g>
<!-- Router_r1&#45;&gt;Computer_c1 -->
<g id="edge2" class="edge"><title>Router_r1&#45;&gt;Computer_c1</title>
<path fill="none" stroke="black" d="M435.701,-75.8335C415.939,-65.7364 390.02,-51.6026 369.779,-39.9561"/>
<polygon fill="black" stroke="black" points="371.324,-36.8062 360.921,-34.8035 367.805,-42.857 371.324,-36.8062"/>
</g>
<!-- Router_r1&#45;&gt;Computer_c1 -->
<g id="edge30" class="edge"><title>Router_r1&#45;&gt;Computer_c1</title>
<path fill="none" stroke="green" d="M443.413,-73.9832C425.701,-63.5083 400.326,-49.442 378.854,-38.1592"/>
<polygon fill="green" stroke="green" points="380.411,-35.0237 369.924,-33.5127 377.179,-41.2334 380.411,-35.0237"/>
</g>
<!-- Router_r3&#45;&gt;Router_r1 -->
<g id="edge1" class="edge"><title>Router_r3&#45;&gt;Router_r1</title>
<path fill="none" stroke="black" d="M453.058,-144.055C453.123,-136.145 453.987,-126.54 455.372,-117.688"/>
<polygon fill="black" stroke="black" points="458.825,-118.261 457.22,-107.789 451.944,-116.977 458.825,-118.261"/>
</g>
<!-- Router_r3&#45;&gt;Router_r1 -->
<g id="edge28" class="edge"><title>Router_r3&#45;&gt;Router_r1</title>
<path fill="none" stroke="green" d="M464.815,-144.055C466.514,-136.346 467.821,-127.027 468.478,-118.364"/>
<polygon fill="green" stroke="green" points="471.979,-118.425 468.939,-108.275 464.986,-118.105 471.979,-118.425"/>
</g>
<!-- Router_r2 -->
<g id="node12" class="node"><title>Router_r2</title>
<ellipse fill="none" stroke="blue" cx="712" cy="-90" rx="47.169" ry="18"/>
<text text-anchor="middle" x="712" y="-86.3" font-family="Times,serif" font-size="14.00">Router_r2</text>
</g>
<!-- Router_r3&#45;&gt;Router_r2 -->
<g id="edge5" class="edge"><title>Router_r3&#45;&gt;Router_r2</title>
<path fill="none" stroke="black" d="M494.079,-150.821C539.309,-138.405 615.817,-117.403 665.098,-103.875"/>
<polygon fill="black" stroke="black" points="666.159,-107.213 674.876,-101.191 664.306,-100.463 666.159,-107.213"/>
</g>
<!-- Computer_c2 -->
<g id="node11" class="node"><title>Computer_c2</title>
<ellipse fill="none" stroke="blue" cx="712" cy="-18" rx="60.1672" ry="18"/>
<text text-anchor="middle" x="712" y="-14.3" font-family="Times,serif" font-size="14.00">Computer_c2</text>
</g>
<!-- Router_r2&#45;&gt;Computer_c2 -->
<g id="edge4" class="edge"><title>Router_r2&#45;&gt;Computer_c2</title>
<path fill="none" stroke="black" d="M712,-71.6966C712,-63.9827 712,-54.7125 712,-46.1124"/>
<polygon fill="black" stroke="black" points="715.5,-46.1043 712,-36.1043 708.5,-46.1044 715.5,-46.1043"/>
</g>
<!-- Server_s1 -->
<g id="node13" class="node"><title>Server_s1</title>
<ellipse fill="none" stroke="blue" cx="450" cy="-234" rx="46.1964" ry="18"/>
<text text-anchor="middle" x="450" y="-230.3" font-family="Times,serif" font-size="14.00">Server_s1</text>
</g>
<!-- Server_s1&#45;&gt;Router_r3 -->
<g id="edge3" class="edge"><title>Server_s1&#45;&gt;Router_r3</title>
<path fill="none" stroke="black" d="M445.816,-216.055C445.768,-208.145 446.495,-198.54 447.753,-189.688"/>
<polygon fill="black" stroke="black" points="451.21,-190.238 449.46,-179.789 444.312,-189.049 451.21,-190.238"/>
</g>
<!-- Server_s1&#45;&gt;Router_r3 -->
<g id="edge27" class="edge"><title>Server_s1&#45;&gt;Router_r3</title>
<path fill="none" stroke="green" d="M457.573,-216.055C459.162,-208.346 460.336,-199.027 460.869,-190.364"/>
<polygon fill="green" stroke="green" points="464.37,-190.38 461.185,-180.275 457.373,-190.161 464.37,-190.38"/>
</g>
<!-- VirtualNode -->
<g id="node14" class="node"><title>VirtualNode</title>
<ellipse fill="none" stroke="gray" cx="585" cy="-306" rx="55.3436" ry="18"/>
<text text-anchor="middle" x="585" y="-302.3" font-family="Times,serif" font-size="14.00">VirtualNode</text>
</g>
<!-- VirtualNode&#45;&gt;Computer_c1 -->
<g id="edge8" class="edge"><title>VirtualNode&#45;&gt;Computer_c1</title>
<path fill="none" stroke="gray" d="M581.671,-287.74C578.664,-244.159 576.311,-129.092 512,-72 482.395,-45.7182 440.472,-32.4265 405.14,-25.7232"/>
<polygon fill="gray" stroke="gray" points="405.343,-22.2052 394.888,-23.9245 404.133,-29.0999 405.343,-22.2052"/>
</g>
<!-- VirtualNode&#45;&gt;Computer_c1 -->
<g id="edge14" class="edge"><title>VirtualNode&#45;&gt;Computer_c1</title>
<path fill="none" stroke="gray" d="M590.382,-288.058C596.675,-244.721 594.468,-129.231 530,-72 496.479,-42.2421 447.167,-29.1377 406.841,-23.3943"/>
<polygon fill="gray" stroke="gray" points="407.165,-19.907 396.797,-22.087 406.261,-26.8485 407.165,-19.907"/>
</g>
<!-- VirtualNode&#45;&gt;Server_s2 -->
<g id="edge9" class="edge"><title>VirtualNode&#45;&gt;Server_s2</title>
<path fill="none" stroke="gray" d="M540.833,-294.906C500.033,-284.433 438.205,-267.455 385,-252 383.097,-251.447 381.16,-250.88 379.207,-250.304"/>
<polygon fill="gray" stroke="gray" points="380.001,-246.888 369.417,-247.373 377.993,-253.594 380.001,-246.888"/>
</g>
<!-- VirtualNode&#45;&gt;Server_s2 -->
<g id="edge12" class="edge"><title>VirtualNode&#45;&gt;Server_s2</title>
<path fill="none" stroke="gray" d="M546.933,-292.776C510.005,-282.225 452.735,-266.447 403,-252 397.695,-250.459 392.117,-248.805 386.535,-247.157"/>
<polygon fill="gray" stroke="gray" points="387.123,-243.682 376.542,-244.22 385.149,-250.398 387.123,-243.682"/>
</g>
<!-- VirtualNode&#45;&gt;Router_r1 -->
<g id="edge7" class="edge"><title>VirtualNode&#45;&gt;Router_r1</title>
<path fill="none" stroke="gray" d="M574.13,-288.129C560.055,-257.806 535.796,-192.719 504,-144 497.522,-134.073 489.198,-124.179 481.774,-115.673"/>
<polygon fill="gray" stroke="gray" points="484.252,-113.19 475.022,-107.987 478.993,-117.81 484.252,-113.19"/>
</g>
<!-- VirtualNode&#45;&gt;Router_r1 -->
<g id="edge11" class="edge"><title>VirtualNode&#45;&gt;Router_r1</title>
<path fill="none" stroke="gray" d="M584.664,-287.647C577.8,-257.121 553.629,-192.462 522,-144 514.719,-132.844 505.108,-121.728 495.736,-112.578"/>
<polygon fill="gray" stroke="gray" points="498.033,-109.934 488.321,-105.699 493.272,-115.066 498.033,-109.934"/>
</g>
<!-- VirtualNode&#45;&gt;Router_r3 -->
<g id="edge10" class="edge"><title>VirtualNode&#45;&gt;Router_r3</title>
<path fill="none" stroke="gray" d="M570.274,-288.58C554.238,-270.708 527.825,-241.298 505,-216 496.381,-206.447 486.874,-195.943 478.61,-186.823"/>
<polygon fill="gray" stroke="gray" points="481.03,-184.282 471.721,-179.223 475.844,-188.983 481.03,-184.282"/>
</g>
<!-- VirtualNode&#45;&gt;Server_s1 -->
<g id="edge13" class="edge"><title>VirtualNode&#45;&gt;Server_s1</title>
<path fill="none" stroke="gray" d="M556.7,-290.326C536.133,-279.662 508.137,-265.145 485.982,-253.657"/>
<polygon fill="gray" stroke="gray" points="487.372,-250.436 476.884,-248.94 484.15,-256.65 487.372,-250.436"/>
</g>
</g>
</svg>
