<?xml version="1.0" encoding="UTF-8" standalone="no"?>
<!DOCTYPE svg PUBLIC "-//W3C//DTD SVG 1.1//EN"
 "http://www.w3.org/Graphics/SVG/1.1/DTD/svg11.dtd">
<!-- Generated by graphviz version 2.36.0 (20140111.2315)
 -->
<!-- Title: G Pages: 1 -->
<svg width="181pt" height="539pt"
 viewBox="0.00 0.00 181.33 538.67" xmlns="http://www.w3.org/2000/svg" xmlns:xlink="http://www.w3.org/1999/xlink">
<g id="graph0" class="graph" transform="scale(1.33333 1.33333) rotate(0) translate(4 400)">
<title>G</title>
<polygon fill="white" stroke="none" points="-4,4 -4,-400 132,-400 132,4 -4,4"/>
<!-- Server_s2 -->
<g id="node1" class="node"><title>Server_s2</title>
<ellipse fill="none" stroke="black" cx="64" cy="-378" rx="46.1964" ry="18"/>
<text text-anchor="middle" x="64" y="-374.3" font-family="Times,serif" font-size="14.00">Server_s2</text>
</g>
<!-- Router_r2 -->
<g id="node2" class="node"><title>Router_r2</title>
<ellipse fill="none" stroke="black" cx="64" cy="-306" rx="47.169" ry="18"/>
<text text-anchor="middle" x="64" y="-302.3" font-family="Times,serif" font-size="14.00">Router_r2</text>
</g>
<!-- Server_s2&#45;&gt;Router_r2 -->
<g id="edge1" class="edge"><title>Server_s2&#45;&gt;Router_r2</title>
<path fill="none" stroke="black" d="M64,-359.697C64,-351.983 64,-342.712 64,-334.112"/>
<polygon fill="black" stroke="black" points="67.5001,-334.104 64,-324.104 60.5001,-334.104 67.5001,-334.104"/>
</g>
<!-- Router_r3 -->
<g id="node3" class="node"><title>Router_r3</title>
<ellipse fill="none" stroke="black" cx="64" cy="-234" rx="47.169" ry="18"/>
<text text-anchor="middle" x="64" y="-230.3" font-family="Times,serif" font-size="14.00">Router_r3</text>
</g>
<!-- Router_r2&#45;&gt;Router_r3 -->
<g id="edge2" class="edge"><title>Router_r2&#45;&gt;Router_r3</title>
<path fill="none" stroke="black" d="M64,-287.697C64,-279.983 64,-270.712 64,-262.112"/>
<polygon fill="black" stroke="black" points="67.5001,-262.104 64,-252.104 60.5001,-262.104 67.5001,-262.104"/>
</g>
<!-- Router_r4 -->
<g id="node4" class="node"><title>Router_r4</title>
<ellipse fill="none" stroke="black" cx="64" cy="-162" rx="47.169" ry="18"/>
<text text-anchor="middle" x="64" y="-158.3" font-family="Times,serif" font-size="14.00">Router_r4</text>
</g>
<!-- Router_r3&#45;&gt;Router_r4 -->
<g id="edge3" class="edge"><title>Router_r3&#45;&gt;Router_r4</title>
<path fill="none" stroke="black" d="M64,-215.697C64,-207.983 64,-198.712 64,-190.112"/>
<polygon fill="black" stroke="black" points="67.5001,-190.104 64,-180.104 60.5001,-190.104 67.5001,-190.104"/>
</g>
<!-- Router_r5 -->
<g id="node5" class="node"><title>Router_r5</title>
<ellipse fill="none" stroke="black" cx="64" cy="-90" rx="47.169" ry="18"/>
<text text-anchor="middle" x="64" y="-86.3" font-family="Times,serif" font-size="14.00">Router_r5</text>
</g>
<!-- Router_r4&#45;&gt;Router_r5 -->
<g id="edge4" class="edge"><title>Router_r4&#45;&gt;Router_r5</title>
<path fill="none" stroke="black" d="M64,-143.697C64,-135.983 64,-126.712 64,-118.112"/>
<polygon fill="black" stroke="black" points="67.5001,-118.104 64,-108.104 60.5001,-118.104 67.5001,-118.104"/>
</g>
<!-- Computer_pc1 -->
<g id="node6" class="node"><title>Computer_pc1</title>
<ellipse fill="none" stroke="black" cx="64" cy="-18" rx="64.4914" ry="18"/>
<text text-anchor="middle" x="64" y="-14.3" font-family="Times,serif" font-size="14.00">Computer_pc1</text>
</g>
<!-- Router_r5&#45;&gt;Computer_pc1 -->
<g id="edge5" class="edge"><title>Router_r5&#45;&gt;Computer_pc1</title>
<path fill="none" stroke="black" d="M64,-71.6966C64,-63.9827 64,-54.7125 64,-46.1124"/>
<polygon fill="black" stroke="black" points="67.5001,-46.1043 64,-36.1043 60.5001,-46.1044 67.5001,-46.1043"/>
</g>
</g>
</svg>
