<?xml version="1.0" encoding="UTF-8" standalone="no"?>
<!DOCTYPE svg PUBLIC "-//W3C//DTD SVG 1.1//EN"
 "http://www.w3.org/Graphics/SVG/1.1/DTD/svg11.dtd">
<!-- Generated by graphviz version 2.36.0 (20140111.2315)
 -->
<!-- Title: G Pages: 1 -->
<svg width="945pt" height="731pt"
 viewBox="0.00 0.00 945.33 730.67" xmlns="http://www.w3.org/2000/svg" xmlns:xlink="http://www.w3.org/1999/xlink">
<g id="graph0" class="graph" transform="scale(1.33333 1.33333) rotate(0) translate(4 544)">
<title>G</title>
<polygon fill="white" stroke="none" points="-4,4 -4,-544 705,-544 705,4 -4,4"/>
<!-- Provider_p2 -->
<g id="node1" class="node"><title>Provider_p2</title>
<ellipse fill="none" stroke="red" cx="96" cy="-522" rx="55.3436" ry="18"/>
<text text-anchor="middle" x="96" y="-518.3" font-family="Times,serif" font-size="14.00">Provider_p2</text>
</g>
<!-- Server_s2 -->
<g id="node8" class="node"><title>Server_s2</title>
<ellipse fill="none" stroke="blue" cx="335" cy="-450" rx="46.1964" ry="18"/>
<text text-anchor="middle" x="335" y="-446.3" font-family="Times,serif" font-size="14.00">Server_s2</text>
</g>
<!-- Provider_p2&#45;&gt;Server_s2 -->
<g id="edge17" class="edge"><title>Provider_p2&#45;&gt;Server_s2</title>
<path fill="none" stroke="purple" d="M136.143,-509.391C173.036,-498.702 229.229,-482.374 278,-468 281.792,-466.882 285.724,-465.719 289.67,-464.548"/>
<polygon fill="purple" stroke="purple" points="290.847,-467.85 299.435,-461.646 288.853,-461.14 290.847,-467.85"/>
</g>
<!-- Consumer_c2 -->
<g id="node2" class="node"><title>Consumer_c2</title>
<ellipse fill="none" stroke="red" cx="61" cy="-162" rx="61.1419" ry="18"/>
<text text-anchor="middle" x="61" y="-158.3" font-family="Times,serif" font-size="14.00">Consumer_c2</text>
</g>
<!-- Computer_pc1 -->
<g id="node9" class="node"><title>Computer_pc1</title>
<ellipse fill="none" stroke="blue" cx="404" cy="-90" rx="64.4914" ry="18"/>
<text text-anchor="middle" x="404" y="-86.3" font-family="Times,serif" font-size="14.00">Computer_pc1</text>
</g>
<!-- Consumer_c2&#45;&gt;Computer_pc1 -->
<g id="edge20" class="edge"><title>Consumer_c2&#45;&gt;Computer_pc1</title>
<path fill="none" stroke="purple" d="M106.115,-149.717C114.377,-147.744 122.936,-145.761 131,-144 202.826,-128.315 285.794,-112.538 341.237,-102.327"/>
<polygon fill="purple" stroke="purple" points="342.057,-105.735 351.26,-100.487 340.793,-98.8506 342.057,-105.735"/>
</g>
<!-- Consumer_c1 -->
<g id="node3" class="node"><title>Consumer_c1</title>
<ellipse fill="none" stroke="red" cx="201" cy="-162" rx="61.1419" ry="18"/>
<text text-anchor="middle" x="201" y="-158.3" font-family="Times,serif" font-size="14.00">Consumer_c1</text>
</g>
<!-- Consumer_c1&#45;&gt;Computer_pc1 -->
<g id="edge21" class="edge"><title>Consumer_c1&#45;&gt;Computer_pc1</title>
<path fill="none" stroke="purple" d="M239.183,-147.834C272.042,-136.503 319.642,-120.089 355.249,-107.811"/>
<polygon fill="purple" stroke="purple" points="356.639,-111.034 364.952,-104.465 354.357,-104.416 356.639,-111.034"/>
</g>
<!-- Consumer_c3 -->
<g id="node4" class="node"><title>Consumer_c3</title>
<ellipse fill="none" stroke="red" cx="341" cy="-162" rx="61.1419" ry="18"/>
<text text-anchor="middle" x="341" y="-158.3" font-family="Times,serif" font-size="14.00">Consumer_c3</text>
</g>
<!-- Consumer_c3&#45;&gt;Computer_pc1 -->
<g id="edge22" class="edge"><title>Consumer_c3&#45;&gt;Computer_pc1</title>
<path fill="none" stroke="purple" d="M355.93,-144.411C363.662,-135.82 373.257,-125.159 381.835,-115.627"/>
<polygon fill="purple" stroke="purple" points="384.651,-117.731 388.739,-107.956 379.448,-113.048 384.651,-117.731"/>
</g>
<!-- Provider_p3 -->
<g id="node5" class="node"><title>Provider_p3</title>
<ellipse fill="none" stroke="red" cx="226" cy="-522" rx="55.3436" ry="18"/>
<text text-anchor="middle" x="226" y="-518.3" font-family="Times,serif" font-size="14.00">Provider_p3</text>
</g>
<!-- Provider_p3&#45;&gt;Server_s2 -->
<g id="edge19" class="edge"><title>Provider_p3&#45;&gt;Server_s2</title>
<path fill="none" stroke="purple" d="M249.921,-505.638C265.61,-495.562 286.299,-482.276 303.346,-471.328"/>
<polygon fill="purple" stroke="purple" points="305.36,-474.195 311.883,-465.846 301.577,-468.305 305.36,-474.195"/>
</g>
<!-- Provider_p1 -->
<g id="node6" class="node"><title>Provider_p1</title>
<ellipse fill="none" stroke="red" cx="356" cy="-522" rx="55.3436" ry="18"/>
<text text-anchor="middle" x="356" y="-518.3" font-family="Times,serif" font-size="14.00">Provider_p1</text>
</g>
<!-- Provider_p1&#45;&gt;Server_s2 -->
<g id="edge18" class="edge"><title>Provider_p1&#45;&gt;Server_s2</title>
<path fill="none" stroke="purple" d="M350.916,-504.055C348.578,-496.261 345.747,-486.822 343.124,-478.079"/>
<polygon fill="purple" stroke="purple" points="346.409,-476.848 340.183,-468.275 339.704,-478.859 346.409,-476.848"/>
</g>
<!-- Server_s1 -->
<g id="node7" class="node"><title>Server_s1</title>
<ellipse fill="none" stroke="blue" cx="223" cy="-450" rx="46.1964" ry="18"/>
<text text-anchor="middle" x="223" y="-446.3" font-family="Times,serif" font-size="14.00">Server_s1</text>
</g>
<!-- Router_r1 -->
<g id="node11" class="node"><title>Router_r1</title>
<ellipse fill="none" stroke="blue" cx="242" cy="-378" rx="47.169" ry="18"/>
<text text-anchor="middle" x="242" y="-374.3" font-family="Times,serif" font-size="14.00">Router_r1</text>
</g>
<!-- Server_s1&#45;&gt;Router_r1 -->
<g id="edge1" class="edge"><title>Server_s1&#45;&gt;Router_r1</title>
<path fill="none" stroke="black" d="M227.599,-432.055C229.715,-424.261 232.277,-414.822 234.65,-406.079"/>
<polygon fill="black" stroke="black" points="238.069,-406.843 237.311,-396.275 231.314,-405.009 238.069,-406.843"/>
</g>
<!-- Router_r2 -->
<g id="node12" class="node"><title>Router_r2</title>
<ellipse fill="none" stroke="blue" cx="373" cy="-378" rx="47.169" ry="18"/>
<text text-anchor="middle" x="373" y="-374.3" font-family="Times,serif" font-size="14.00">Router_r2</text>
</g>
<!-- Server_s2&#45;&gt;Router_r2 -->
<g id="edge2" class="edge"><title>Server_s2&#45;&gt;Router_r2</title>
<path fill="none" stroke="black" d="M338.478,-431.697C342.163,-423.316 347.517,-413.098 352.99,-403.899"/>
<polygon fill="black" stroke="black" points="356.127,-405.483 358.445,-395.145 350.186,-401.78 356.127,-405.483"/>
</g>
<!-- Server_s2&#45;&gt;Router_r2 -->
<g id="edge27" class="edge"><title>Server_s2&#45;&gt;Router_r2</title>
<path fill="none" stroke="green" d="M349.614,-432.765C354.955,-424.611 360.682,-414.529 365.281,-405.307"/>
<polygon fill="green" stroke="green" points="368.511,-406.663 369.601,-396.124 362.177,-403.682 368.511,-406.663"/>
</g>
<!-- Computer_pc2 -->
<g id="node10" class="node"><title>Computer_pc2</title>
<ellipse fill="none" stroke="blue" cx="637" cy="-18" rx="64.4914" ry="18"/>
<text text-anchor="middle" x="637" y="-14.3" font-family="Times,serif" font-size="14.00">Computer_pc2</text>
</g>
<!-- Router_r3 -->
<g id="node13" class="node"><title>Router_r3</title>
<ellipse fill="none" stroke="blue" cx="392" cy="-306" rx="47.169" ry="18"/>
<text text-anchor="middle" x="392" y="-302.3" font-family="Times,serif" font-size="14.00">Router_r3</text>
</g>
<!-- Router_r1&#45;&gt;Router_r3 -->
<g id="edge3" class="edge"><title>Router_r1&#45;&gt;Router_r3</title>
<path fill="none" stroke="black" d="M270.922,-363.503C294.654,-352.428 328.436,-336.663 354.289,-324.598"/>
<polygon fill="black" stroke="black" points="355.84,-327.737 363.422,-320.336 352.88,-321.394 355.84,-327.737"/>
</g>
<!-- Router_r2&#45;&gt;Router_r3 -->
<g id="edge4" class="edge"><title>Router_r2&#45;&gt;Router_r3</title>
<path fill="none" stroke="black" d="M371.781,-359.697C373.127,-351.696 375.541,-342.02 378.346,-333.155"/>
<polygon fill="black" stroke="black" points="381.682,-334.217 381.645,-323.622 375.067,-331.928 381.682,-334.217"/>
</g>
<!-- Router_r2&#45;&gt;Router_r3 -->
<g id="edge23" class="edge"><title>Router_r2&#45;&gt;Router_r3</title>
<path fill="none" stroke="green" d="M383.343,-360.411C386.306,-352.623 389.136,-343.135 391.186,-334.329"/>
<polygon fill="green" stroke="green" points="394.632,-334.944 393.195,-324.447 387.773,-333.549 394.632,-334.944"/>
</g>
<!-- Router_r4 -->
<g id="node14" class="node"><title>Router_r4</title>
<ellipse fill="none" stroke="blue" cx="449" cy="-234" rx="47.169" ry="18"/>
<text text-anchor="middle" x="449" y="-230.3" font-family="Times,serif" font-size="14.00">Router_r4</text>
</g>
<!-- Router_r3&#45;&gt;Router_r4 -->
<g id="edge5" class="edge"><title>Router_r3&#45;&gt;Router_r4</title>
<path fill="none" stroke="black" d="M399.92,-288.055C406.251,-279.115 415.118,-268.012 423.645,-258.276"/>
<polygon fill="black" stroke="black" points="426.261,-260.601 430.356,-250.829 421.061,-255.915 426.261,-260.601"/>
</g>
<!-- Router_r3&#45;&gt;Router_r4 -->
<g id="edge24" class="edge"><title>Router_r3&#45;&gt;Router_r4</title>
<path fill="none" stroke="green" d="M410.695,-289.116C418.7,-280.505 427.77,-269.667 435.175,-259.957"/>
<polygon fill="green" stroke="green" points="438.072,-261.925 441.185,-251.797 432.436,-257.773 438.072,-261.925"/>
</g>
<!-- Router_r5 -->
<g id="node15" class="node"><title>Router_r5</title>
<ellipse fill="none" stroke="blue" cx="468" cy="-162" rx="47.169" ry="18"/>
<text text-anchor="middle" x="468" y="-158.3" font-family="Times,serif" font-size="14.00">Router_r5</text>
</g>
<!-- Router_r4&#45;&gt;Router_r5 -->
<g id="edge6" class="edge"><title>Router_r4&#45;&gt;Router_r5</title>
<path fill="none" stroke="black" d="M447.781,-215.697C449.127,-207.696 451.541,-198.02 454.346,-189.155"/>
<polygon fill="black" stroke="black" points="457.682,-190.217 457.645,-179.622 451.067,-187.928 457.682,-190.217"/>
</g>
<!-- Router_r4&#45;&gt;Router_r5 -->
<g id="edge25" class="edge"><title>Router_r4&#45;&gt;Router_r5</title>
<path fill="none" stroke="green" d="M459.343,-216.411C462.306,-208.623 465.136,-199.135 467.186,-190.329"/>
<polygon fill="green" stroke="green" points="470.632,-190.944 469.195,-180.447 463.773,-189.549 470.632,-190.944"/>
</g>
<!-- Router_r6 -->
<g id="node16" class="node"><title>Router_r6</title>
<ellipse fill="none" stroke="blue" cx="637" cy="-162" rx="47.169" ry="18"/>
<text text-anchor="middle" x="637" y="-158.3" font-family="Times,serif" font-size="14.00">Router_r6</text>
</g>
<!-- Router_r4&#45;&gt;Router_r6 -->
<g id="edge7" class="edge"><title>Router_r4&#45;&gt;Router_r6</title>
<path fill="none" stroke="black" d="M481.747,-220.807C513.057,-209.149 560.427,-191.511 594.605,-178.785"/>
<polygon fill="black" stroke="black" points="596.163,-181.94 604.313,-175.171 593.721,-175.38 596.163,-181.94"/>
</g>
<!-- Router_r5&#45;&gt;Computer_pc1 -->
<g id="edge8" class="edge"><title>Router_r5&#45;&gt;Computer_pc1</title>
<path fill="none" stroke="black" d="M448.076,-145.465C439.106,-136.78 428.764,-125.75 420.264,-115.891"/>
<polygon fill="black" stroke="black" points="422.73,-113.384 413.628,-107.962 417.362,-117.877 422.73,-113.384"/>
</g>
<!-- Router_r5&#45;&gt;Computer_pc1 -->
<g id="edge26" class="edge"><title>Router_r5&#45;&gt;Computer_pc1</title>
<path fill="none" stroke="green" d="M458.386,-144.055C451.194,-135.156 441.274,-124.112 431.812,-114.408"/>
<polygon fill="green" stroke="green" points="434.261,-111.909 424.718,-107.307 429.309,-116.856 434.261,-111.909"/>
</g>
<!-- Router_r7 -->
<g id="node17" class="node"><title>Router_r7</title>
<ellipse fill="none" stroke="blue" cx="637" cy="-90" rx="47.169" ry="18"/>
<text text-anchor="middle" x="637" y="-86.3" font-family="Times,serif" font-size="14.00">Router_r7</text>
</g>
<!-- Router_r6&#45;&gt;Router_r7 -->
<g id="edge9" class="edge"><title>Router_r6&#45;&gt;Router_r7</title>
<path fill="none" stroke="black" d="M637,-143.697C637,-135.983 637,-126.712 637,-118.112"/>
<polygon fill="black" stroke="black" points="640.5,-118.104 637,-108.104 633.5,-118.104 640.5,-118.104"/>
</g>
<!-- Router_r7&#45;&gt;Computer_pc2 -->
<g id="edge10" class="edge"><title>Router_r7&#45;&gt;Computer_pc2</title>
<path fill="none" stroke="black" d="M637,-71.6966C637,-63.9827 637,-54.7125 637,-46.1124"/>
<polygon fill="black" stroke="black" points="640.5,-46.1043 637,-36.1043 633.5,-46.1044 640.5,-46.1043"/>
</g>
<!-- VirtualNode -->
<g id="node18" class="node"><title>VirtualNode</title>
<ellipse fill="none" stroke="gray" cx="486" cy="-522" rx="55.3436" ry="18"/>
<text text-anchor="middle" x="486" y="-518.3" font-family="Times,serif" font-size="14.00">VirtualNode</text>
</g>
<!-- VirtualNode&#45;&gt;Server_s2 -->
<g id="edge12" class="edge"><title>VirtualNode&#45;&gt;Server_s2</title>
<path fill="none" stroke="gray" d="M455.443,-506.834C431.678,-495.818 398.572,-480.471 373.082,-468.654"/>
<polygon fill="gray" stroke="gray" points="374.266,-465.345 363.721,-464.314 371.322,-471.696 374.266,-465.345"/>
</g>
<!-- VirtualNode&#45;&gt;Computer_pc1 -->
<g id="edge16" class="edge"><title>VirtualNode&#45;&gt;Computer_pc1</title>
<path fill="none" stroke="gray" d="M501.747,-504.609C524.008,-479.639 562,-429.611 562,-379 562,-379 562,-379 562,-233 562,-189.99 554.224,-174.6 524,-144 506.573,-126.357 482.262,-114.134 460.074,-105.912"/>
<polygon fill="gray" stroke="gray" points="460.988,-102.524 450.393,-102.52 458.674,-109.13 460.988,-102.524"/>
</g>
<!-- VirtualNode&#45;&gt;Router_r2 -->
<g id="edge11" class="edge"><title>VirtualNode&#45;&gt;Router_r2</title>
<path fill="none" stroke="gray" d="M468.346,-504.526C457.889,-494.407 444.646,-480.942 434,-468 417.203,-447.58 400.384,-422.621 388.674,-404.336"/>
<polygon fill="gray" stroke="gray" points="391.508,-402.27 383.2,-395.694 385.594,-406.015 391.508,-402.27"/>
</g>
<!-- VirtualNode&#45;&gt;Router_r3 -->
<g id="edge13" class="edge"><title>VirtualNode&#45;&gt;Router_r3</title>
<path fill="none" stroke="gray" d="M481.596,-503.93C473.48,-473.843 454.623,-409.841 429,-360 423.997,-350.269 417.438,-340.263 411.234,-331.602"/>
<polygon fill="gray" stroke="gray" points="413.973,-329.419 405.219,-323.45 408.34,-333.575 413.973,-329.419"/>
</g>
<!-- VirtualNode&#45;&gt;Router_r4 -->
<g id="edge14" class="edge"><title>VirtualNode&#45;&gt;Router_r4</title>
<path fill="none" stroke="gray" d="M483.796,-503.966C477.616,-456.192 460.077,-320.623 452.527,-262.266"/>
<polygon fill="gray" stroke="gray" points="455.993,-261.775 451.239,-252.306 449.051,-262.673 455.993,-261.775"/>
</g>
<!-- VirtualNode&#45;&gt;Router_r5 -->
<g id="edge15" class="edge"><title>VirtualNode&#45;&gt;Router_r5</title>
<path fill="none" stroke="gray" d="M493.69,-503.907C504.794,-477.623 524,-425.447 524,-379 524,-379 524,-379 524,-305 524,-264.553 521.119,-253.096 505,-216 500.707,-206.119 494.43,-196.196 488.262,-187.652"/>
<polygon fill="gray" stroke="gray" points="491.021,-185.498 482.207,-179.619 485.432,-189.712 491.021,-185.498"/>
</g>
</g>
</svg>
