<?xml version="1.0" encoding="UTF-8" standalone="no"?>
<!DOCTYPE svg PUBLIC "-//W3C//DTD SVG 1.1//EN"
 "http://www.w3.org/Graphics/SVG/1.1/DTD/svg11.dtd">
<!-- Generated by graphviz version 2.36.0 (20140111.2315)
 -->
<!-- Title: G Pages: 1 -->
<svg width="984pt" height="731pt"
 viewBox="0.00 0.00 984.00 730.67" xmlns="http://www.w3.org/2000/svg" xmlns:xlink="http://www.w3.org/1999/xlink">
<g id="graph0" class="graph" transform="scale(1.33333 1.33333) rotate(0) translate(4 544)">
<title>G</title>
<polygon fill="white" stroke="none" points="-4,4 -4,-544 734,-544 734,4 -4,4"/>
<!-- Provider_p1 -->
<g id="node1" class="node"><title>Provider_p1</title>
<ellipse fill="none" stroke="red" cx="545" cy="-522" rx="55.3436" ry="18"/>
<text text-anchor="middle" x="545" y="-518.3" font-family="Times,serif" font-size="14.00">Provider_p1</text>
</g>
<!-- Server_s1 -->
<g id="node7" class="node"><title>Server_s1</title>
<ellipse fill="none" stroke="blue" cx="545" cy="-450" rx="46.1964" ry="18"/>
<text text-anchor="middle" x="545" y="-446.3" font-family="Times,serif" font-size="14.00">Server_s1</text>
</g>
<!-- Provider_p1&#45;&gt;Server_s1 -->
<g id="edge17" class="edge"><title>Provider_p1&#45;&gt;Server_s1</title>
<path fill="none" stroke="purple" d="M545,-503.697C545,-495.983 545,-486.712 545,-478.112"/>
<polygon fill="purple" stroke="purple" points="548.5,-478.104 545,-468.104 541.5,-478.104 548.5,-478.104"/>
</g>
<!-- Provider_p2 -->
<g id="node2" class="node"><title>Provider_p2</title>
<ellipse fill="none" stroke="red" cx="675" cy="-522" rx="55.3436" ry="18"/>
<text text-anchor="middle" x="675" y="-518.3" font-family="Times,serif" font-size="14.00">Provider_p2</text>
</g>
<!-- Provider_p2&#45;&gt;Server_s1 -->
<g id="edge19" class="edge"><title>Provider_p2&#45;&gt;Server_s1</title>
<path fill="none" stroke="purple" d="M647.43,-506.155C627.823,-495.597 601.323,-481.328 580.19,-469.948"/>
<polygon fill="purple" stroke="purple" points="581.664,-466.767 571.2,-465.108 578.345,-472.93 581.664,-466.767"/>
</g>
<!-- Consumer_pc1 -->
<g id="node3" class="node"><title>Consumer_pc1</title>
<ellipse fill="none" stroke="red" cx="253" cy="-162" rx="65.4659" ry="18"/>
<text text-anchor="middle" x="253" y="-158.3" font-family="Times,serif" font-size="14.00">Consumer_pc1</text>
</g>
<!-- Computer_pc1 -->
<g id="node9" class="node"><title>Computer_pc1</title>
<ellipse fill="none" stroke="blue" cx="318" cy="-90" rx="64.4914" ry="18"/>
<text text-anchor="middle" x="318" y="-86.3" font-family="Times,serif" font-size="14.00">Computer_pc1</text>
</g>
<!-- Consumer_pc1&#45;&gt;Computer_pc1 -->
<g id="edge21" class="edge"><title>Consumer_pc1&#45;&gt;Computer_pc1</title>
<path fill="none" stroke="purple" d="M268.404,-144.411C276.461,-135.734 286.479,-124.946 295.397,-115.342"/>
<polygon fill="purple" stroke="purple" points="298.015,-117.666 302.255,-107.956 292.886,-112.903 298.015,-117.666"/>
</g>
<!-- Consumer_pc2 -->
<g id="node4" class="node"><title>Consumer_pc2</title>
<ellipse fill="none" stroke="red" cx="515" cy="-162" rx="65.4659" ry="18"/>
<text text-anchor="middle" x="515" y="-158.3" font-family="Times,serif" font-size="14.00">Consumer_pc2</text>
</g>
<!-- Consumer_pc2&#45;&gt;Computer_pc1 -->
<g id="edge20" class="edge"><title>Consumer_pc2&#45;&gt;Computer_pc1</title>
<path fill="none" stroke="purple" d="M476.549,-147.337C444.956,-136.111 400.035,-120.149 366.069,-108.08"/>
<polygon fill="purple" stroke="purple" points="366.949,-104.679 356.354,-104.628 364.605,-111.275 366.949,-104.679"/>
</g>
<!-- Provider_p3 -->
<g id="node5" class="node"><title>Provider_p3</title>
<ellipse fill="none" stroke="red" cx="415" cy="-522" rx="55.3436" ry="18"/>
<text text-anchor="middle" x="415" y="-518.3" font-family="Times,serif" font-size="14.00">Provider_p3</text>
</g>
<!-- Provider_p3&#45;&gt;Server_s1 -->
<g id="edge18" class="edge"><title>Provider_p3&#45;&gt;Server_s1</title>
<path fill="none" stroke="purple" d="M442.57,-506.155C462.177,-495.597 488.677,-481.328 509.81,-469.948"/>
<polygon fill="purple" stroke="purple" points="511.655,-472.93 518.8,-465.108 508.336,-466.767 511.655,-472.93"/>
</g>
<!-- Consumer_pc3 -->
<g id="node6" class="node"><title>Consumer_pc3</title>
<ellipse fill="none" stroke="red" cx="65" cy="-162" rx="65.4659" ry="18"/>
<text text-anchor="middle" x="65" y="-158.3" font-family="Times,serif" font-size="14.00">Consumer_pc3</text>
</g>
<!-- Consumer_pc3&#45;&gt;Computer_pc1 -->
<g id="edge22" class="edge"><title>Consumer_pc3&#45;&gt;Computer_pc1</title>
<path fill="none" stroke="purple" d="M109.359,-148.727C152.4,-136.818 217.794,-118.725 263.877,-105.975"/>
<polygon fill="purple" stroke="purple" points="264.988,-109.299 273.692,-103.259 263.121,-102.552 264.988,-109.299"/>
</g>
<!-- Router_r1 -->
<g id="node11" class="node"><title>Router_r1</title>
<ellipse fill="none" stroke="blue" cx="423" cy="-378" rx="47.169" ry="18"/>
<text text-anchor="middle" x="423" y="-374.3" font-family="Times,serif" font-size="14.00">Router_r1</text>
</g>
<!-- Server_s1&#45;&gt;Router_r1 -->
<g id="edge1" class="edge"><title>Server_s1&#45;&gt;Router_r1</title>
<path fill="none" stroke="black" d="M516.331,-435.669C497.107,-425.464 472.001,-411.207 452.6,-399.547"/>
<polygon fill="black" stroke="black" points="454.221,-396.436 443.858,-394.229 450.583,-402.416 454.221,-396.436"/>
</g>
<!-- Server_s1&#45;&gt;Router_r1 -->
<g id="edge26" class="edge"><title>Server_s1&#45;&gt;Router_r1</title>
<path fill="none" stroke="green" d="M524.206,-433.811C506.831,-423.093 481.822,-408.679 460.95,-397.322"/>
<polygon fill="green" stroke="green" points="462.458,-394.159 451.993,-392.503 459.141,-400.324 462.458,-394.159"/>
</g>
<!-- Server_s2 -->
<g id="node8" class="node"><title>Server_s2</title>
<ellipse fill="none" stroke="blue" cx="310" cy="-450" rx="46.1964" ry="18"/>
<text text-anchor="middle" x="310" y="-446.3" font-family="Times,serif" font-size="14.00">Server_s2</text>
</g>
<!-- Router_r2 -->
<g id="node12" class="node"><title>Router_r2</title>
<ellipse fill="none" stroke="blue" cx="310" cy="-378" rx="47.169" ry="18"/>
<text text-anchor="middle" x="310" y="-374.3" font-family="Times,serif" font-size="14.00">Router_r2</text>
</g>
<!-- Server_s2&#45;&gt;Router_r2 -->
<g id="edge2" class="edge"><title>Server_s2&#45;&gt;Router_r2</title>
<path fill="none" stroke="black" d="M310,-431.697C310,-423.983 310,-414.712 310,-406.112"/>
<polygon fill="black" stroke="black" points="313.5,-406.104 310,-396.104 306.5,-406.104 313.5,-406.104"/>
</g>
<!-- Computer_pc2 -->
<g id="node10" class="node"><title>Computer_pc2</title>
<ellipse fill="none" stroke="blue" cx="646" cy="-18" rx="64.4914" ry="18"/>
<text text-anchor="middle" x="646" y="-14.3" font-family="Times,serif" font-size="14.00">Computer_pc2</text>
</g>
<!-- Router_r3 -->
<g id="node13" class="node"><title>Router_r3</title>
<ellipse fill="none" stroke="blue" cx="403" cy="-306" rx="47.169" ry="18"/>
<text text-anchor="middle" x="403" y="-302.3" font-family="Times,serif" font-size="14.00">Router_r3</text>
</g>
<!-- Router_r1&#45;&gt;Router_r3 -->
<g id="edge3" class="edge"><title>Router_r1&#45;&gt;Router_r3</title>
<path fill="none" stroke="black" d="M412.42,-360.411C409.345,-352.623 406.38,-343.135 404.205,-334.329"/>
<polygon fill="black" stroke="black" points="407.6,-333.474 402.054,-324.447 400.76,-334.962 407.6,-333.474"/>
</g>
<!-- Router_r1&#45;&gt;Router_r3 -->
<g id="edge27" class="edge"><title>Router_r1&#45;&gt;Router_r3</title>
<path fill="none" stroke="green" d="M423.972,-359.697C422.511,-351.696 419.96,-342.02 417.027,-333.155"/>
<polygon fill="green" stroke="green" points="420.275,-331.844 413.593,-323.622 413.69,-334.217 420.275,-331.844"/>
</g>
<!-- Router_r2&#45;&gt;Router_r3 -->
<g id="edge4" class="edge"><title>Router_r2&#45;&gt;Router_r3</title>
<path fill="none" stroke="black" d="M330.64,-361.465C343.403,-351.858 359.976,-339.383 374.041,-328.797"/>
<polygon fill="black" stroke="black" points="376.533,-331.302 382.418,-322.492 372.323,-325.709 376.533,-331.302"/>
</g>
<!-- Router_r4 -->
<g id="node14" class="node"><title>Router_r4</title>
<ellipse fill="none" stroke="blue" cx="403" cy="-234" rx="47.169" ry="18"/>
<text text-anchor="middle" x="403" y="-230.3" font-family="Times,serif" font-size="14.00">Router_r4</text>
</g>
<!-- Router_r3&#45;&gt;Router_r4 -->
<g id="edge5" class="edge"><title>Router_r3&#45;&gt;Router_r4</title>
<path fill="none" stroke="black" d="M397.122,-288.055C396.304,-280.346 396.061,-271.027 396.395,-262.364"/>
<polygon fill="black" stroke="black" points="399.894,-262.491 397.087,-252.275 392.911,-262.012 399.894,-262.491"/>
</g>
<!-- Router_r3&#45;&gt;Router_r4 -->
<g id="edge24" class="edge"><title>Router_r3&#45;&gt;Router_r4</title>
<path fill="none" stroke="green" d="M408.878,-288.055C409.696,-280.346 409.939,-271.027 409.605,-262.364"/>
<polygon fill="green" stroke="green" points="413.089,-262.012 408.913,-252.275 406.106,-262.491 413.089,-262.012"/>
</g>
<!-- Router_r5 -->
<g id="node15" class="node"><title>Router_r5</title>
<ellipse fill="none" stroke="blue" cx="384" cy="-162" rx="47.169" ry="18"/>
<text text-anchor="middle" x="384" y="-158.3" font-family="Times,serif" font-size="14.00">Router_r5</text>
</g>
<!-- Router_r4&#45;&gt;Router_r5 -->
<g id="edge6" class="edge"><title>Router_r4&#45;&gt;Router_r5</title>
<path fill="none" stroke="black" d="M392.657,-216.411C389.694,-208.623 386.864,-199.135 384.814,-190.329"/>
<polygon fill="black" stroke="black" points="388.227,-189.549 382.805,-180.447 381.368,-190.944 388.227,-189.549"/>
</g>
<!-- Router_r4&#45;&gt;Router_r5 -->
<g id="edge25" class="edge"><title>Router_r4&#45;&gt;Router_r5</title>
<path fill="none" stroke="green" d="M404.219,-215.697C402.873,-207.696 400.459,-198.02 397.654,-189.155"/>
<polygon fill="green" stroke="green" points="400.933,-187.928 394.355,-179.622 394.318,-190.217 400.933,-187.928"/>
</g>
<!-- Router_r6 -->
<g id="node16" class="node"><title>Router_r6</title>
<ellipse fill="none" stroke="blue" cx="646" cy="-162" rx="47.169" ry="18"/>
<text text-anchor="middle" x="646" y="-158.3" font-family="Times,serif" font-size="14.00">Router_r6</text>
</g>
<!-- Router_r4&#45;&gt;Router_r6 -->
<g id="edge7" class="edge"><title>Router_r4&#45;&gt;Router_r6</title>
<path fill="none" stroke="black" d="M439.742,-222.674C477.289,-212.088 537.263,-195.086 589,-180 592.741,-178.909 596.617,-177.771 600.508,-176.622"/>
<polygon fill="black" stroke="black" points="601.547,-179.965 610.14,-173.768 599.558,-173.253 601.547,-179.965"/>
</g>
<!-- Router_r5&#45;&gt;Computer_pc1 -->
<g id="edge8" class="edge"><title>Router_r5&#45;&gt;Computer_pc1</title>
<path fill="none" stroke="black" d="M363.632,-145.465C354.322,-136.693 343.544,-125.529 334.712,-115.596"/>
<polygon fill="black" stroke="black" points="337.3,-113.237 328.113,-107.962 332.005,-117.816 337.3,-113.237"/>
</g>
<!-- Router_r5&#45;&gt;Computer_pc1 -->
<g id="edge23" class="edge"><title>Router_r5&#45;&gt;Computer_pc1</title>
<path fill="none" stroke="green" d="M373.901,-144.055C366.401,-135.091 356.071,-123.952 346.269,-114.198"/>
<polygon fill="green" stroke="green" points="348.542,-111.527 338.931,-107.068 343.664,-116.547 348.542,-111.527"/>
</g>
<!-- Router_r7 -->
<g id="node17" class="node"><title>Router_r7</title>
<ellipse fill="none" stroke="blue" cx="646" cy="-90" rx="47.169" ry="18"/>
<text text-anchor="middle" x="646" y="-86.3" font-family="Times,serif" font-size="14.00">Router_r7</text>
</g>
<!-- Router_r6&#45;&gt;Router_r7 -->
<g id="edge9" class="edge"><title>Router_r6&#45;&gt;Router_r7</title>
<path fill="none" stroke="black" d="M646,-143.697C646,-135.983 646,-126.712 646,-118.112"/>
<polygon fill="black" stroke="black" points="649.5,-118.104 646,-108.104 642.5,-118.104 649.5,-118.104"/>
</g>
<!-- Router_r7&#45;&gt;Computer_pc2 -->
<g id="edge10" class="edge"><title>Router_r7&#45;&gt;Computer_pc2</title>
<path fill="none" stroke="black" d="M646,-71.6966C646,-63.9827 646,-54.7125 646,-46.1124"/>
<polygon fill="black" stroke="black" points="649.5,-46.1043 646,-36.1043 642.5,-46.1044 649.5,-46.1043"/>
</g>
<!-- VirtualNode -->
<g id="node18" class="node"><title>VirtualNode</title>
<ellipse fill="none" stroke="gray" cx="260" cy="-522" rx="55.3436" ry="18"/>
<text text-anchor="middle" x="260" y="-518.3" font-family="Times,serif" font-size="14.00">VirtualNode</text>
</g>
<!-- VirtualNode&#45;&gt;Server_s1 -->
<g id="edge12" class="edge"><title>VirtualNode&#45;&gt;Server_s1</title>
<path fill="none" stroke="gray" d="M304.329,-511.054C349.61,-500.768 421.887,-483.997 484,-468 488.741,-466.779 493.678,-465.468 498.6,-464.136"/>
<polygon fill="gray" stroke="gray" points="499.894,-467.411 508.614,-461.394 498.045,-460.66 499.894,-467.411"/>
</g>
<!-- VirtualNode&#45;&gt;Computer_pc1 -->
<g id="edge16" class="edge"><title>VirtualNode&#45;&gt;Computer_pc1</title>
<path fill="none" stroke="gray" d="M238.58,-505.284C208.933,-481.535 159,-433.455 159,-379 159,-379 159,-379 159,-233 159,-192.553 151.647,-174.684 178,-144 196.851,-122.051 225.783,-109.169 252.462,-101.619"/>
<polygon fill="gray" stroke="gray" points="253.383,-104.996 262.167,-99.0715 251.606,-98.2251 253.383,-104.996"/>
</g>
<!-- VirtualNode&#45;&gt;Router_r1 -->
<g id="edge11" class="edge"><title>VirtualNode&#45;&gt;Router_r1</title>
<path fill="none" stroke="gray" d="M296.402,-508.196C318.045,-499.306 345.073,-485.846 365,-468 384.745,-450.317 400.601,-424.438 410.71,-405.139"/>
<polygon fill="gray" stroke="gray" points="413.946,-406.496 415.333,-395.992 407.699,-403.338 413.946,-406.496"/>
</g>
<!-- VirtualNode&#45;&gt;Router_r3 -->
<g id="edge13" class="edge"><title>VirtualNode&#45;&gt;Router_r3</title>
<path fill="none" stroke="gray" d="M253.257,-504.071C241.893,-472.502 223.036,-403.879 254,-360 274.874,-330.42 313.774,-317.251 346.594,-311.435"/>
<polygon fill="gray" stroke="gray" points="347.228,-314.878 356.557,-309.856 346.133,-307.964 347.228,-314.878"/>
</g>
<!-- VirtualNode&#45;&gt;Router_r4 -->
<g id="edge14" class="edge"><title>VirtualNode&#45;&gt;Router_r4</title>
<path fill="none" stroke="gray" d="M305.51,-511.399C359.872,-497.069 447.428,-464.119 479,-396 499.528,-351.71 484.179,-329.821 459,-288 451.972,-276.327 441.68,-265.557 431.83,-256.818"/>
<polygon fill="gray" stroke="gray" points="433.988,-254.06 424.096,-250.267 429.464,-259.401 433.988,-254.06"/>
</g>
<!-- VirtualNode&#45;&gt;Router_r5 -->
<g id="edge15" class="edge"><title>VirtualNode&#45;&gt;Router_r5</title>
<path fill="none" stroke="gray" d="M246.946,-504.147C228.493,-478.588 197,-427.816 197,-379 197,-379 197,-379 197,-305 197,-267.524 293.461,-210.632 347.823,-181.544"/>
<polygon fill="gray" stroke="gray" points="349.61,-184.558 356.809,-176.784 346.333,-178.373 349.61,-184.558"/>
</g>
</g>
</svg>
