<?xml version="1.0" encoding="UTF-8" standalone="no"?>
<!DOCTYPE svg PUBLIC "-//W3C//DTD SVG 1.1//EN"
 "http://www.w3.org/Graphics/SVG/1.1/DTD/svg11.dtd">
<!-- Generated by graphviz version 2.36.0 (20140111.2315)
 -->
<!-- Title: G Pages: 1 -->
<svg width="1101pt" height="539pt"
 viewBox="0.00 0.00 1100.54 538.67" xmlns="http://www.w3.org/2000/svg" xmlns:xlink="http://www.w3.org/1999/xlink">
<g id="graph0" class="graph" transform="scale(1.33333 1.33333) rotate(0) translate(4 400)">
<title>G</title>
<polygon fill="white" stroke="none" points="-4,4 -4,-400 821.402,-400 821.402,4 -4,4"/>
<!-- Provider_p1 -->
<g id="node1" class="node"><title>Provider_p1</title>
<ellipse fill="none" stroke="red" cx="55" cy="-378" rx="55.3436" ry="18"/>
<text text-anchor="middle" x="55" y="-374.3" font-family="Times,serif" font-size="14.00">Provider_p1</text>
</g>
<!-- Server_s1 -->
<g id="node7" class="node"><title>Server_s1</title>
<ellipse fill="none" stroke="blue" cx="249" cy="-306" rx="46.1964" ry="18"/>
<text text-anchor="middle" x="249" y="-302.3" font-family="Times,serif" font-size="14.00">Server_s1</text>
</g>
<!-- Provider_p1&#45;&gt;Server_s1 -->
<g id="edge18" class="edge"><title>Provider_p1&#45;&gt;Server_s1</title>
<path fill="none" stroke="purple" d="M90.5826,-364.161C123.238,-352.378 171.67,-334.903 206.379,-322.379"/>
<polygon fill="purple" stroke="purple" points="208.009,-325.511 216.228,-318.825 205.633,-318.927 208.009,-325.511"/>
</g>
<!-- Provider_p2 -->
<g id="node2" class="node"><title>Provider_p2</title>
<ellipse fill="none" stroke="red" cx="185" cy="-378" rx="55.3436" ry="18"/>
<text text-anchor="middle" x="185" y="-374.3" font-family="Times,serif" font-size="14.00">Provider_p2</text>
</g>
<!-- Provider_p2&#45;&gt;Server_s1 -->
<g id="edge17" class="edge"><title>Provider_p2&#45;&gt;Server_s1</title>
<path fill="none" stroke="purple" d="M200.167,-360.411C208.217,-351.606 218.254,-340.628 227.131,-330.919"/>
<polygon fill="purple" stroke="purple" points="229.777,-333.212 233.942,-323.47 224.611,-328.489 229.777,-333.212"/>
</g>
<!-- Consumer_pc1 -->
<g id="node3" class="node"><title>Consumer_pc1</title>
<ellipse fill="none" stroke="red" cx="438" cy="-234" rx="65.4659" ry="18"/>
<text text-anchor="middle" x="438" y="-230.3" font-family="Times,serif" font-size="14.00">Consumer_pc1</text>
</g>
<!-- Computer_pc3 -->
<g id="node10" class="node"><title>Computer_pc3</title>
<ellipse fill="none" stroke="blue" cx="512" cy="-162" rx="64.4914" ry="18"/>
<text text-anchor="middle" x="512" y="-158.3" font-family="Times,serif" font-size="14.00">Computer_pc3</text>
</g>
<!-- Consumer_pc1&#45;&gt;Computer_pc3 -->
<g id="edge14" class="edge"><title>Consumer_pc1&#45;&gt;Computer_pc3</title>
<path fill="none" stroke="purple" d="M455.537,-216.411C465.029,-207.432 476.911,-196.193 487.322,-186.344"/>
<polygon fill="purple" stroke="purple" points="489.729,-188.885 494.589,-179.47 484.919,-183.799 489.729,-188.885"/>
</g>
<!-- Consumer_pc2 -->
<g id="node4" class="node"><title>Consumer_pc2</title>
<ellipse fill="none" stroke="red" cx="587" cy="-234" rx="65.4659" ry="18"/>
<text text-anchor="middle" x="587" y="-230.3" font-family="Times,serif" font-size="14.00">Consumer_pc2</text>
</g>
<!-- Consumer_pc2&#45;&gt;Computer_pc3 -->
<g id="edge15" class="edge"><title>Consumer_pc2&#45;&gt;Computer_pc3</title>
<path fill="none" stroke="purple" d="M569.226,-216.411C559.606,-207.432 547.564,-196.193 537.011,-186.344"/>
<polygon fill="purple" stroke="purple" points="539.345,-183.734 529.646,-179.47 534.569,-188.852 539.345,-183.734"/>
</g>
<!-- Provider_p3 -->
<g id="node5" class="node"><title>Provider_p3</title>
<ellipse fill="none" stroke="red" cx="315" cy="-378" rx="55.3436" ry="18"/>
<text text-anchor="middle" x="315" y="-374.3" font-family="Times,serif" font-size="14.00">Provider_p3</text>
</g>
<!-- Provider_p3&#45;&gt;Server_s1 -->
<g id="edge13" class="edge"><title>Provider_p3&#45;&gt;Server_s1</title>
<path fill="none" stroke="purple" d="M299.359,-360.411C291.057,-351.606 280.707,-340.628 271.552,-330.919"/>
<polygon fill="purple" stroke="purple" points="273.936,-328.345 264.529,-323.47 268.842,-333.147 273.936,-328.345"/>
</g>
<!-- Consumer_pc3 -->
<g id="node6" class="node"><title>Consumer_pc3</title>
<ellipse fill="none" stroke="red" cx="736" cy="-234" rx="65.4659" ry="18"/>
<text text-anchor="middle" x="736" y="-230.3" font-family="Times,serif" font-size="14.00">Consumer_pc3</text>
</g>
<!-- Consumer_pc3&#45;&gt;Computer_pc3 -->
<g id="edge16" class="edge"><title>Consumer_pc3&#45;&gt;Computer_pc3</title>
<path fill="none" stroke="purple" d="M694.392,-219.998C657.302,-208.407 602.89,-191.403 563.152,-178.985"/>
<polygon fill="purple" stroke="purple" points="563.974,-175.575 553.385,-175.933 561.886,-182.256 563.974,-175.575"/>
</g>
<!-- Router_r1 -->
<g id="node11" class="node"><title>Router_r1</title>
<ellipse fill="none" stroke="blue" cx="81" cy="-234" rx="47.169" ry="18"/>
<text text-anchor="middle" x="81" y="-230.3" font-family="Times,serif" font-size="14.00">Router_r1</text>
</g>
<!-- Server_s1&#45;&gt;Router_r1 -->
<g id="edge1" class="edge"><title>Server_s1&#45;&gt;Router_r1</title>
<path fill="none" stroke="black" d="M218.576,-292.324C191.273,-280.947 151.009,-264.17 121.087,-251.703"/>
<polygon fill="black" stroke="black" points="122.342,-248.434 111.765,-247.819 119.65,-254.896 122.342,-248.434"/>
</g>
<!-- Router_r2 -->
<g id="node12" class="node"><title>Router_r2</title>
<ellipse fill="none" stroke="blue" cx="194" cy="-234" rx="47.169" ry="18"/>
<text text-anchor="middle" x="194" y="-230.3" font-family="Times,serif" font-size="14.00">Router_r2</text>
</g>
<!-- Server_s1&#45;&gt;Router_r2 -->
<g id="edge2" class="edge"><title>Server_s1&#45;&gt;Router_r2</title>
<path fill="none" stroke="black" d="M235.966,-288.411C229.185,-279.781 220.763,-269.062 213.248,-259.497"/>
<polygon fill="black" stroke="black" points="215.871,-257.171 206.941,-251.47 210.367,-261.496 215.871,-257.171"/>
</g>
<!-- Router_r4 -->
<g id="node14" class="node"><title>Router_r4</title>
<ellipse fill="none" stroke="blue" cx="307" cy="-234" rx="47.169" ry="18"/>
<text text-anchor="middle" x="307" y="-230.3" font-family="Times,serif" font-size="14.00">Router_r4</text>
</g>
<!-- Server_s1&#45;&gt;Router_r4 -->
<g id="edge3" class="edge"><title>Server_s1&#45;&gt;Router_r4</title>
<path fill="none" stroke="black" d="M257.162,-288.055C263.62,-279.115 272.646,-268.012 281.312,-258.276"/>
<polygon fill="black" stroke="black" points="283.959,-260.569 288.13,-250.829 278.796,-255.842 283.959,-260.569"/>
</g>
<!-- Server_s1&#45;&gt;Router_r4 -->
<g id="edge19" class="edge"><title>Server_s1&#45;&gt;Router_r4</title>
<path fill="none" stroke="green" d="M267.592,-289.465C275.735,-280.867 285.027,-269.97 292.639,-260.187"/>
<polygon fill="green" stroke="green" points="295.612,-262.057 298.826,-251.962 290.018,-257.85 295.612,-262.057"/>
</g>
<!-- Computer_pc1 -->
<g id="node8" class="node"><title>Computer_pc1</title>
<ellipse fill="none" stroke="blue" cx="77" cy="-18" rx="64.4914" ry="18"/>
<text text-anchor="middle" x="77" y="-14.3" font-family="Times,serif" font-size="14.00">Computer_pc1</text>
</g>
<!-- Computer_pc2 -->
<g id="node9" class="node"><title>Computer_pc2</title>
<ellipse fill="none" stroke="blue" cx="207" cy="-90" rx="64.4914" ry="18"/>
<text text-anchor="middle" x="207" y="-86.3" font-family="Times,serif" font-size="14.00">Computer_pc2</text>
</g>
<!-- Router_r3 -->
<g id="node13" class="node"><title>Router_r3</title>
<ellipse fill="none" stroke="blue" cx="81" cy="-162" rx="47.169" ry="18"/>
<text text-anchor="middle" x="81" y="-158.3" font-family="Times,serif" font-size="14.00">Router_r3</text>
</g>
<!-- Router_r1&#45;&gt;Router_r3 -->
<g id="edge7" class="edge"><title>Router_r1&#45;&gt;Router_r3</title>
<path fill="none" stroke="black" d="M81,-215.697C81,-207.983 81,-198.712 81,-190.112"/>
<polygon fill="black" stroke="black" points="84.5001,-190.104 81,-180.104 77.5001,-190.104 84.5001,-190.104"/>
</g>
<!-- Router_r6 -->
<g id="node16" class="node"><title>Router_r6</title>
<ellipse fill="none" stroke="blue" cx="202" cy="-162" rx="47.169" ry="18"/>
<text text-anchor="middle" x="202" y="-158.3" font-family="Times,serif" font-size="14.00">Router_r6</text>
</g>
<!-- Router_r2&#45;&gt;Router_r6 -->
<g id="edge9" class="edge"><title>Router_r2&#45;&gt;Router_r6</title>
<path fill="none" stroke="black" d="M195.978,-215.697C196.859,-207.983 197.919,-198.712 198.901,-190.112"/>
<polygon fill="black" stroke="black" points="202.387,-190.437 200.045,-180.104 195.432,-189.642 202.387,-190.437"/>
</g>
<!-- Router_r5 -->
<g id="node15" class="node"><title>Router_r5</title>
<ellipse fill="none" stroke="blue" cx="77" cy="-90" rx="47.169" ry="18"/>
<text text-anchor="middle" x="77" y="-86.3" font-family="Times,serif" font-size="14.00">Router_r5</text>
</g>
<!-- Router_r3&#45;&gt;Router_r5 -->
<g id="edge8" class="edge"><title>Router_r3&#45;&gt;Router_r5</title>
<path fill="none" stroke="black" d="M80.0112,-143.697C79.5704,-135.983 79.0407,-126.712 78.5493,-118.112"/>
<polygon fill="black" stroke="black" points="82.0423,-117.888 77.9774,-108.104 75.0537,-118.288 82.0423,-117.888"/>
</g>
<!-- Router_r4&#45;&gt;Computer_pc3 -->
<g id="edge4" class="edge"><title>Router_r4&#45;&gt;Computer_pc3</title>
<path fill="none" stroke="black" d="M338.334,-220.485C370.626,-208.861 421.323,-191.499 459.677,-178.899"/>
<polygon fill="black" stroke="black" points="461.223,-182.076 469.641,-175.642 459.049,-175.422 461.223,-182.076"/>
</g>
<!-- Router_r4&#45;&gt;Computer_pc3 -->
<g id="edge20" class="edge"><title>Router_r4&#45;&gt;Computer_pc3</title>
<path fill="none" stroke="green" d="M343.144,-222.369C377.588,-211.274 429.381,-193.694 466.576,-180.539"/>
<polygon fill="green" stroke="green" points="467.925,-183.774 476.174,-177.126 465.58,-177.179 467.925,-183.774"/>
</g>
<!-- Router_r5&#45;&gt;Computer_pc1 -->
<g id="edge6" class="edge"><title>Router_r5&#45;&gt;Computer_pc1</title>
<path fill="none" stroke="black" d="M77,-71.6966C77,-63.9827 77,-54.7125 77,-46.1124"/>
<polygon fill="black" stroke="black" points="80.5001,-46.1043 77,-36.1043 73.5001,-46.1044 80.5001,-46.1043"/>
</g>
<!-- Router_r6&#45;&gt;Computer_pc2 -->
<g id="edge5" class="edge"><title>Router_r6&#45;&gt;Computer_pc2</title>
<path fill="none" stroke="black" d="M203.236,-143.697C203.787,-135.983 204.449,-126.712 205.063,-118.112"/>
<polygon fill="black" stroke="black" points="208.557,-118.328 205.778,-108.104 201.575,-117.83 208.557,-118.328"/>
</g>
<!-- VirtualNode -->
<g id="node17" class="node"><title>VirtualNode</title>
<ellipse fill="none" stroke="gray" cx="445" cy="-378" rx="55.3436" ry="18"/>
<text text-anchor="middle" x="445" y="-374.3" font-family="Times,serif" font-size="14.00">VirtualNode</text>
</g>
<!-- VirtualNode&#45;&gt;Server_s1 -->
<g id="edge11" class="edge"><title>VirtualNode&#45;&gt;Server_s1</title>
<path fill="none" stroke="gray" d="M409.051,-364.161C375.917,-352.327 326.707,-334.753 291.61,-322.218"/>
<polygon fill="gray" stroke="gray" points="292.705,-318.892 282.11,-318.825 290.35,-325.485 292.705,-318.892"/>
</g>
<!-- VirtualNode&#45;&gt;Computer_pc3 -->
<g id="edge12" class="edge"><title>VirtualNode&#45;&gt;Computer_pc3</title>
<path fill="none" stroke="gray" d="M500.411,-376.6C583.694,-372.638 738.932,-351.459 810,-252 819.302,-238.982 820.276,-228.264 810,-216 781.982,-182.559 664.941,-170.202 586.148,-165.646"/>
<polygon fill="gray" stroke="gray" points="585.954,-162.13 575.778,-165.079 585.571,-169.12 585.954,-162.13"/>
</g>
<!-- VirtualNode&#45;&gt;Router_r4 -->
<g id="edge10" class="edge"><title>VirtualNode&#45;&gt;Router_r4</title>
<path fill="none" stroke="gray" d="M429.17,-360.711C404.734,-335.566 357.723,-287.193 329.68,-258.337"/>
<polygon fill="gray" stroke="gray" points="332.125,-255.831 322.646,-251.099 327.105,-260.71 332.125,-255.831"/>
</g>
</g>
</svg>
