<?xml version="1.0" encoding="UTF-8" standalone="no"?>
<!DOCTYPE svg PUBLIC "-//W3C//DTD SVG 1.1//EN"
 "http://www.w3.org/Graphics/SVG/1.1/DTD/svg11.dtd">
<!-- Generated by graphviz version 2.36.0 (20140111.2315)
 -->
<!-- Title: G Pages: 1 -->
<svg width="1145pt" height="443pt"
 viewBox="0.00 0.00 1145.33 442.67" xmlns="http://www.w3.org/2000/svg" xmlns:xlink="http://www.w3.org/1999/xlink">
<g id="graph0" class="graph" transform="scale(1.33333 1.33333) rotate(0) translate(4 328)">
<title>G</title>
<polygon fill="white" stroke="none" points="-4,4 -4,-328 855,-328 855,4 -4,4"/>
<!-- Provider_p1 -->
<g id="node1" class="node"><title>Provider_p1</title>
<ellipse fill="none" stroke="red" cx="292" cy="-234" rx="55.3436" ry="18"/>
<text text-anchor="middle" x="292" y="-230.3" font-family="Times,serif" font-size="14.00">Provider_p1</text>
</g>
<!-- Server_s2 -->
<g id="node8" class="node"><title>Server_s2</title>
<ellipse fill="none" stroke="blue" cx="556" cy="-162" rx="46.1964" ry="18"/>
<text text-anchor="middle" x="556" y="-158.3" font-family="Times,serif" font-size="14.00">Server_s2</text>
</g>
<!-- Provider_p1&#45;&gt;Server_s2 -->
<g id="edge13" class="edge"><title>Provider_p1&#45;&gt;Server_s2</title>
<path fill="none" stroke="purple" d="M333.54,-221.985C381.087,-209.378 458.805,-188.771 508.657,-175.553"/>
<polygon fill="purple" stroke="purple" points="509.775,-178.878 518.544,-172.931 507.981,-172.111 509.775,-178.878"/>
</g>
<!-- Provider_p2 -->
<g id="node2" class="node"><title>Provider_p2</title>
<ellipse fill="none" stroke="red" cx="422" cy="-234" rx="55.3436" ry="18"/>
<text text-anchor="middle" x="422" y="-230.3" font-family="Times,serif" font-size="14.00">Provider_p2</text>
</g>
<!-- Provider_p2&#45;&gt;Server_s2 -->
<g id="edge15" class="edge"><title>Provider_p2&#45;&gt;Server_s2</title>
<path fill="none" stroke="purple" d="M450.091,-218.326C470.505,-207.662 498.294,-193.145 520.284,-181.657"/>
<polygon fill="purple" stroke="purple" points="522.073,-184.672 529.316,-176.94 518.831,-178.468 522.073,-184.672"/>
</g>
<!-- Consumer_pc1 -->
<g id="node3" class="node"><title>Consumer_pc1</title>
<ellipse fill="none" stroke="red" cx="178" cy="-90" rx="65.4659" ry="18"/>
<text text-anchor="middle" x="178" y="-86.3" font-family="Times,serif" font-size="14.00">Consumer_pc1</text>
</g>
<!-- Computer_pc1 -->
<g id="node10" class="node"><title>Computer_pc1</title>
<ellipse fill="none" stroke="blue" cx="541" cy="-18" rx="64.4914" ry="18"/>
<text text-anchor="middle" x="541" y="-14.3" font-family="Times,serif" font-size="14.00">Computer_pc1</text>
</g>
<!-- Consumer_pc1&#45;&gt;Computer_pc1 -->
<g id="edge18" class="edge"><title>Consumer_pc1&#45;&gt;Computer_pc1</title>
<path fill="none" stroke="purple" d="M226.097,-77.6244C234.708,-75.681 243.609,-73.7324 252,-72 329.331,-56.0348 418.808,-39.9988 477.468,-29.815"/>
<polygon fill="purple" stroke="purple" points="478.075,-33.2621 487.331,-28.1074 476.881,-26.3647 478.075,-33.2621"/>
</g>
<!-- Consumer_pc2 -->
<g id="node4" class="node"><title>Consumer_pc2</title>
<ellipse fill="none" stroke="red" cx="327" cy="-90" rx="65.4659" ry="18"/>
<text text-anchor="middle" x="327" y="-86.3" font-family="Times,serif" font-size="14.00">Consumer_pc2</text>
</g>
<!-- Consumer_pc2&#45;&gt;Computer_pc1 -->
<g id="edge17" class="edge"><title>Consumer_pc2&#45;&gt;Computer_pc1</title>
<path fill="none" stroke="purple" d="M367.503,-75.7512C402.542,-64.29 453.342,-47.6732 490.924,-35.3799"/>
<polygon fill="purple" stroke="purple" points="492.246,-38.6301 500.662,-32.1946 490.07,-31.977 492.246,-38.6301"/>
</g>
<!-- Provider_p3 -->
<g id="node5" class="node"><title>Provider_p3</title>
<ellipse fill="none" stroke="red" cx="552" cy="-234" rx="55.3436" ry="18"/>
<text text-anchor="middle" x="552" y="-230.3" font-family="Times,serif" font-size="14.00">Provider_p3</text>
</g>
<!-- Provider_p3&#45;&gt;Server_s2 -->
<g id="edge14" class="edge"><title>Provider_p3&#45;&gt;Server_s2</title>
<path fill="none" stroke="purple" d="M552.989,-215.697C553.43,-207.983 553.959,-198.712 554.451,-190.112"/>
<polygon fill="purple" stroke="purple" points="557.946,-190.288 555.023,-180.104 550.958,-189.888 557.946,-190.288"/>
</g>
<!-- Consumer_pc3 -->
<g id="node6" class="node"><title>Consumer_pc3</title>
<ellipse fill="none" stroke="red" cx="476" cy="-90" rx="65.4659" ry="18"/>
<text text-anchor="middle" x="476" y="-86.3" font-family="Times,serif" font-size="14.00">Consumer_pc3</text>
</g>
<!-- Consumer_pc3&#45;&gt;Computer_pc1 -->
<g id="edge16" class="edge"><title>Consumer_pc3&#45;&gt;Computer_pc1</title>
<path fill="none" stroke="purple" d="M491.404,-72.411C499.461,-63.7338 509.479,-52.946 518.397,-43.3418"/>
<polygon fill="purple" stroke="purple" points="521.015,-45.6658 525.255,-35.9562 515.886,-40.9026 521.015,-45.6658"/>
</g>
<!-- Server_s1 -->
<g id="node7" class="node"><title>Server_s1</title>
<ellipse fill="none" stroke="blue" cx="47" cy="-234" rx="46.1964" ry="18"/>
<text text-anchor="middle" x="47" y="-230.3" font-family="Times,serif" font-size="14.00">Server_s1</text>
</g>
<!-- Router_r1 -->
<g id="node11" class="node"><title>Router_r1</title>
<ellipse fill="none" stroke="blue" cx="47" cy="-162" rx="47.169" ry="18"/>
<text text-anchor="middle" x="47" y="-158.3" font-family="Times,serif" font-size="14.00">Router_r1</text>
</g>
<!-- Server_s1&#45;&gt;Router_r1 -->
<g id="edge1" class="edge"><title>Server_s1&#45;&gt;Router_r1</title>
<path fill="none" stroke="black" d="M47,-215.697C47,-207.983 47,-198.712 47,-190.112"/>
<polygon fill="black" stroke="black" points="50.5001,-190.104 47,-180.104 43.5001,-190.104 50.5001,-190.104"/>
</g>
<!-- Router_r5 -->
<g id="node15" class="node"><title>Router_r5</title>
<ellipse fill="none" stroke="blue" cx="607" cy="-90" rx="47.169" ry="18"/>
<text text-anchor="middle" x="607" y="-86.3" font-family="Times,serif" font-size="14.00">Router_r5</text>
</g>
<!-- Server_s2&#45;&gt;Router_r5 -->
<g id="edge2" class="edge"><title>Server_s2&#45;&gt;Router_r5</title>
<path fill="none" stroke="black" d="M562.467,-144.055C567.922,-135.292 575.635,-124.451 583.183,-114.856"/>
<polygon fill="black" stroke="black" points="586.117,-116.795 589.713,-106.829 580.687,-112.378 586.117,-116.795"/>
</g>
<!-- Server_s2&#45;&gt;Router_r5 -->
<g id="edge19" class="edge"><title>Server_s2&#45;&gt;Router_r5</title>
<path fill="none" stroke="green" d="M573.334,-145.116C580.423,-136.716 588.344,-126.196 594.829,-116.671"/>
<polygon fill="green" stroke="green" points="597.766,-118.575 600.316,-108.292 591.91,-114.741 597.766,-118.575"/>
</g>
<!-- Server_s3 -->
<g id="node9" class="node"><title>Server_s3</title>
<ellipse fill="none" stroke="blue" cx="803" cy="-306" rx="46.1964" ry="18"/>
<text text-anchor="middle" x="803" y="-302.3" font-family="Times,serif" font-size="14.00">Server_s3</text>
</g>
<!-- Router_r2 -->
<g id="node12" class="node"><title>Router_r2</title>
<ellipse fill="none" stroke="blue" cx="803" cy="-234" rx="47.169" ry="18"/>
<text text-anchor="middle" x="803" y="-230.3" font-family="Times,serif" font-size="14.00">Router_r2</text>
</g>
<!-- Server_s3&#45;&gt;Router_r2 -->
<g id="edge3" class="edge"><title>Server_s3&#45;&gt;Router_r2</title>
<path fill="none" stroke="black" d="M803,-287.697C803,-279.983 803,-270.712 803,-262.112"/>
<polygon fill="black" stroke="black" points="806.5,-262.104 803,-252.104 799.5,-262.104 806.5,-262.104"/>
</g>
<!-- Router_r4 -->
<g id="node14" class="node"><title>Router_r4</title>
<ellipse fill="none" stroke="blue" cx="47" cy="-90" rx="47.169" ry="18"/>
<text text-anchor="middle" x="47" y="-86.3" font-family="Times,serif" font-size="14.00">Router_r4</text>
</g>
<!-- Router_r1&#45;&gt;Router_r4 -->
<g id="edge7" class="edge"><title>Router_r1&#45;&gt;Router_r4</title>
<path fill="none" stroke="black" d="M47,-143.697C47,-135.983 47,-126.712 47,-118.112"/>
<polygon fill="black" stroke="black" points="50.5001,-118.104 47,-108.104 43.5001,-118.104 50.5001,-118.104"/>
</g>
<!-- Router_r3 -->
<g id="node13" class="node"><title>Router_r3</title>
<ellipse fill="none" stroke="blue" cx="791" cy="-162" rx="47.169" ry="18"/>
<text text-anchor="middle" x="791" y="-158.3" font-family="Times,serif" font-size="14.00">Router_r3</text>
</g>
<!-- Router_r2&#45;&gt;Router_r3 -->
<g id="edge8" class="edge"><title>Router_r2&#45;&gt;Router_r3</title>
<path fill="none" stroke="black" d="M800.034,-215.697C798.711,-207.983 797.122,-198.712 795.648,-190.112"/>
<polygon fill="black" stroke="black" points="799.072,-189.369 793.932,-180.104 792.172,-190.552 799.072,-189.369"/>
</g>
<!-- Router_r6 -->
<g id="node16" class="node"><title>Router_r6</title>
<ellipse fill="none" stroke="blue" cx="768" cy="-90" rx="47.169" ry="18"/>
<text text-anchor="middle" x="768" y="-86.3" font-family="Times,serif" font-size="14.00">Router_r6</text>
</g>
<!-- Router_r3&#45;&gt;Router_r6 -->
<g id="edge9" class="edge"><title>Router_r3&#45;&gt;Router_r6</title>
<path fill="none" stroke="black" d="M785.432,-144.055C782.844,-136.176 779.703,-126.617 776.804,-117.794"/>
<polygon fill="black" stroke="black" points="780.123,-116.683 773.676,-108.275 773.473,-118.868 780.123,-116.683"/>
</g>
<!-- Router_r4&#45;&gt;Computer_pc1 -->
<g id="edge4" class="edge"><title>Router_r4&#45;&gt;Computer_pc1</title>
<path fill="none" stroke="black" d="M81.4076,-77.5267C88.4901,-75.4563 95.941,-73.4867 103,-72 230.252,-45.1997 381.363,-30.6362 468.717,-23.8662"/>
<polygon fill="black" stroke="black" points="469.083,-27.3486 478.788,-23.0984 468.551,-20.3688 469.083,-27.3486"/>
</g>
<!-- Router_r5&#45;&gt;Computer_pc1 -->
<g id="edge5" class="edge"><title>Router_r5&#45;&gt;Computer_pc1</title>
<path fill="none" stroke="black" d="M586.632,-73.4647C577.322,-64.6928 566.544,-53.5292 557.712,-43.5955"/>
<polygon fill="black" stroke="black" points="560.3,-41.2374 551.113,-35.9618 555.005,-45.8156 560.3,-41.2374"/>
</g>
<!-- Router_r5&#45;&gt;Computer_pc1 -->
<g id="edge20" class="edge"><title>Router_r5&#45;&gt;Computer_pc1</title>
<path fill="none" stroke="green" d="M596.901,-72.055C589.401,-63.0913 579.071,-51.9519 569.269,-42.1978"/>
<polygon fill="green" stroke="green" points="571.542,-39.5266 561.931,-35.0676 566.664,-44.5468 571.542,-39.5266"/>
</g>
<!-- Router_r6&#45;&gt;Computer_pc1 -->
<g id="edge6" class="edge"><title>Router_r6&#45;&gt;Computer_pc1</title>
<path fill="none" stroke="black" d="M732.531,-78.0625C694.934,-66.4687 635.196,-48.0473 592.433,-34.8604"/>
<polygon fill="black" stroke="black" points="593.355,-31.4821 582.767,-31.8798 591.292,-38.1713 593.355,-31.4821"/>
</g>
<!-- VirtualNode -->
<g id="node17" class="node"><title>VirtualNode</title>
<ellipse fill="none" stroke="gray" cx="682" cy="-234" rx="55.3436" ry="18"/>
<text text-anchor="middle" x="682" y="-230.3" font-family="Times,serif" font-size="14.00">VirtualNode</text>
</g>
<!-- VirtualNode&#45;&gt;Server_s2 -->
<g id="edge11" class="edge"><title>VirtualNode&#45;&gt;Server_s2</title>
<path fill="none" stroke="gray" d="M655.279,-218.155C636.36,-207.644 610.82,-193.456 590.383,-182.102"/>
<polygon fill="gray" stroke="gray" points="591.835,-178.905 581.394,-177.108 588.436,-185.024 591.835,-178.905"/>
</g>
<!-- VirtualNode&#45;&gt;Computer_pc1 -->
<g id="edge12" class="edge"><title>VirtualNode&#45;&gt;Computer_pc1</title>
<path fill="none" stroke="gray" d="M685.076,-215.976C689.807,-184.247 695.238,-115.37 663,-72 648.354,-52.2966 624.832,-39.8178 602.333,-31.9611"/>
<polygon fill="gray" stroke="gray" points="603.373,-28.6192 592.781,-28.8694 601.217,-35.279 603.373,-28.6192"/>
</g>
<!-- VirtualNode&#45;&gt;Router_r5 -->
<g id="edge10" class="edge"><title>VirtualNode&#45;&gt;Router_r5</title>
<path fill="none" stroke="gray" d="M673.102,-216.153C660.134,-191.6 635.929,-145.773 620.684,-116.908"/>
<polygon fill="gray" stroke="gray" points="623.652,-115.033 615.886,-107.825 617.462,-118.302 623.652,-115.033"/>
</g>
</g>
</svg>
