<?xml version="1.0" encoding="UTF-8" standalone="no"?>
<!DOCTYPE svg PUBLIC "-//W3C//DTD SVG 1.1//EN"
 "http://www.w3.org/Graphics/SVG/1.1/DTD/svg11.dtd">
<!-- Generated by graphviz version 2.36.0 (20140111.2315)
 -->
<!-- Title: G Pages: 1 -->
<svg width="1141pt" height="731pt"
 viewBox="0.00 0.00 1141.33 730.67" xmlns="http://www.w3.org/2000/svg" xmlns:xlink="http://www.w3.org/1999/xlink">
<g id="graph0" class="graph" transform="scale(1.33333 1.33333) rotate(0) translate(4 544)">
<title>G</title>
<polygon fill="white" stroke="none" points="-4,4 -4,-544 852,-544 852,4 -4,4"/>
<!-- Provider_p1 -->
<g id="node1" class="node"><title>Provider_p1</title>
<ellipse fill="none" stroke="red" cx="663" cy="-522" rx="55.3436" ry="18"/>
<text text-anchor="middle" x="663" y="-518.3" font-family="Times,serif" font-size="14.00">Provider_p1</text>
</g>
<!-- Server_s3 -->
<g id="node9" class="node"><title>Server_s3</title>
<ellipse fill="none" stroke="blue" cx="533" cy="-450" rx="46.1964" ry="18"/>
<text text-anchor="middle" x="533" y="-446.3" font-family="Times,serif" font-size="14.00">Server_s3</text>
</g>
<!-- Provider_p1&#45;&gt;Server_s3 -->
<g id="edge19" class="edge"><title>Provider_p1&#45;&gt;Server_s3</title>
<path fill="none" stroke="purple" d="M635.43,-506.155C615.823,-495.597 589.323,-481.328 568.19,-469.948"/>
<polygon fill="purple" stroke="purple" points="569.664,-466.767 559.2,-465.108 566.345,-472.93 569.664,-466.767"/>
</g>
<!-- Provider_p2 -->
<g id="node2" class="node"><title>Provider_p2</title>
<ellipse fill="none" stroke="red" cx="793" cy="-522" rx="55.3436" ry="18"/>
<text text-anchor="middle" x="793" y="-518.3" font-family="Times,serif" font-size="14.00">Provider_p2</text>
</g>
<!-- Provider_p2&#45;&gt;Server_s3 -->
<g id="edge20" class="edge"><title>Provider_p2&#45;&gt;Server_s3</title>
<path fill="none" stroke="purple" d="M751.802,-509.908C705.05,-497.321 628.946,-476.832 579.938,-463.637"/>
<polygon fill="purple" stroke="purple" points="580.78,-460.239 570.214,-461.019 578.96,-466.999 580.78,-460.239"/>
</g>
<!-- Consumer_pc1 -->
<g id="node3" class="node"><title>Consumer_pc1</title>
<ellipse fill="none" stroke="red" cx="65" cy="-162" rx="65.4659" ry="18"/>
<text text-anchor="middle" x="65" y="-158.3" font-family="Times,serif" font-size="14.00">Consumer_pc1</text>
</g>
<!-- Computer_pc2 -->
<g id="node11" class="node"><title>Computer_pc2</title>
<ellipse fill="none" stroke="blue" cx="336" cy="-90" rx="64.4914" ry="18"/>
<text text-anchor="middle" x="336" y="-86.3" font-family="Times,serif" font-size="14.00">Computer_pc2</text>
</g>
<!-- Consumer_pc1&#45;&gt;Computer_pc2 -->
<g id="edge22" class="edge"><title>Consumer_pc1&#45;&gt;Computer_pc2</title>
<path fill="none" stroke="purple" d="M110.971,-149.125C157.832,-137.021 230.55,-118.238 280.569,-105.318"/>
<polygon fill="purple" stroke="purple" points="281.449,-108.706 290.256,-102.816 279.698,-101.928 281.449,-108.706"/>
</g>
<!-- Consumer_pc2 -->
<g id="node4" class="node"><title>Consumer_pc2</title>
<ellipse fill="none" stroke="red" cx="214" cy="-162" rx="65.4659" ry="18"/>
<text text-anchor="middle" x="214" y="-158.3" font-family="Times,serif" font-size="14.00">Consumer_pc2</text>
</g>
<!-- Consumer_pc2&#45;&gt;Computer_pc2 -->
<g id="edge21" class="edge"><title>Consumer_pc2&#45;&gt;Computer_pc2</title>
<path fill="none" stroke="purple" d="M241.076,-145.465C258.45,-135.496 281.208,-122.438 300.085,-111.607"/>
<polygon fill="purple" stroke="purple" points="302.068,-114.504 309,-106.492 298.584,-108.433 302.068,-114.504"/>
</g>
<!-- Provider_p3 -->
<g id="node5" class="node"><title>Provider_p3</title>
<ellipse fill="none" stroke="red" cx="533" cy="-522" rx="55.3436" ry="18"/>
<text text-anchor="middle" x="533" y="-518.3" font-family="Times,serif" font-size="14.00">Provider_p3</text>
</g>
<!-- Provider_p3&#45;&gt;Server_s3 -->
<g id="edge18" class="edge"><title>Provider_p3&#45;&gt;Server_s3</title>
<path fill="none" stroke="purple" d="M533,-503.697C533,-495.983 533,-486.712 533,-478.112"/>
<polygon fill="purple" stroke="purple" points="536.5,-478.104 533,-468.104 529.5,-478.104 536.5,-478.104"/>
</g>
<!-- Consumer_pc3 -->
<g id="node6" class="node"><title>Consumer_pc3</title>
<ellipse fill="none" stroke="red" cx="402" cy="-162" rx="65.4659" ry="18"/>
<text text-anchor="middle" x="402" y="-158.3" font-family="Times,serif" font-size="14.00">Consumer_pc3</text>
</g>
<!-- Consumer_pc3&#45;&gt;Computer_pc2 -->
<g id="edge23" class="edge"><title>Consumer_pc3&#45;&gt;Computer_pc2</title>
<path fill="none" stroke="purple" d="M386.359,-144.411C378.178,-135.734 368.006,-124.946 358.951,-115.342"/>
<polygon fill="purple" stroke="purple" points="361.394,-112.831 351.987,-107.956 356.301,-117.633 361.394,-112.831"/>
</g>
<!-- Server_s1 -->
<g id="node7" class="node"><title>Server_s1</title>
<ellipse fill="none" stroke="blue" cx="645" cy="-378" rx="46.1964" ry="18"/>
<text text-anchor="middle" x="645" y="-374.3" font-family="Times,serif" font-size="14.00">Server_s1</text>
</g>
<!-- Router_r1 -->
<g id="node13" class="node"><title>Router_r1</title>
<ellipse fill="none" stroke="blue" cx="638" cy="-306" rx="47.169" ry="18"/>
<text text-anchor="middle" x="638" y="-302.3" font-family="Times,serif" font-size="14.00">Router_r1</text>
</g>
<!-- Server_s1&#45;&gt;Router_r1 -->
<g id="edge1" class="edge"><title>Server_s1&#45;&gt;Router_r1</title>
<path fill="none" stroke="black" d="M643.27,-359.697C642.498,-351.983 641.571,-342.712 640.711,-334.112"/>
<polygon fill="black" stroke="black" points="644.188,-333.706 639.71,-324.104 637.223,-334.403 644.188,-333.706"/>
</g>
<!-- Server_s2 -->
<g id="node8" class="node"><title>Server_s2</title>
<ellipse fill="none" stroke="blue" cx="757" cy="-378" rx="46.1964" ry="18"/>
<text text-anchor="middle" x="757" y="-374.3" font-family="Times,serif" font-size="14.00">Server_s2</text>
</g>
<!-- Server_s2&#45;&gt;Router_r1 -->
<g id="edge2" class="edge"><title>Server_s2&#45;&gt;Router_r1</title>
<path fill="none" stroke="black" d="M732.631,-362.666C715.021,-352.306 691.014,-338.184 671.587,-326.757"/>
<polygon fill="black" stroke="black" points="673.139,-323.609 662.745,-321.556 669.59,-329.643 673.139,-323.609"/>
</g>
<!-- Router_r2 -->
<g id="node14" class="node"><title>Router_r2</title>
<ellipse fill="none" stroke="blue" cx="533" cy="-378" rx="47.169" ry="18"/>
<text text-anchor="middle" x="533" y="-374.3" font-family="Times,serif" font-size="14.00">Router_r2</text>
</g>
<!-- Server_s3&#45;&gt;Router_r2 -->
<g id="edge3" class="edge"><title>Server_s3&#45;&gt;Router_r2</title>
<path fill="none" stroke="black" d="M527.122,-432.055C526.304,-424.346 526.061,-415.027 526.395,-406.364"/>
<polygon fill="black" stroke="black" points="529.894,-406.491 527.087,-396.275 522.911,-406.012 529.894,-406.491"/>
</g>
<!-- Server_s3&#45;&gt;Router_r2 -->
<g id="edge25" class="edge"><title>Server_s3&#45;&gt;Router_r2</title>
<path fill="none" stroke="green" d="M538.878,-432.055C539.696,-424.346 539.939,-415.027 539.605,-406.364"/>
<polygon fill="green" stroke="green" points="543.089,-406.012 538.913,-396.275 536.106,-406.491 543.089,-406.012"/>
</g>
<!-- Computer_pc1 -->
<g id="node10" class="node"><title>Computer_pc1</title>
<ellipse fill="none" stroke="blue" cx="633" cy="-18" rx="64.4914" ry="18"/>
<text text-anchor="middle" x="633" y="-14.3" font-family="Times,serif" font-size="14.00">Computer_pc1</text>
</g>
<!-- Computer_pc3 -->
<g id="node12" class="node"><title>Computer_pc3</title>
<ellipse fill="none" stroke="blue" cx="485" cy="-18" rx="64.4914" ry="18"/>
<text text-anchor="middle" x="485" y="-14.3" font-family="Times,serif" font-size="14.00">Computer_pc3</text>
</g>
<!-- Router_r3 -->
<g id="node15" class="node"><title>Router_r3</title>
<ellipse fill="none" stroke="blue" cx="624" cy="-234" rx="47.169" ry="18"/>
<text text-anchor="middle" x="624" y="-230.3" font-family="Times,serif" font-size="14.00">Router_r3</text>
</g>
<!-- Router_r1&#45;&gt;Router_r3 -->
<g id="edge7" class="edge"><title>Router_r1&#45;&gt;Router_r3</title>
<path fill="none" stroke="black" d="M634.539,-287.697C632.997,-279.983 631.142,-270.712 629.422,-262.112"/>
<polygon fill="black" stroke="black" points="632.814,-261.224 627.421,-252.104 625.95,-262.597 632.814,-261.224"/>
</g>
<!-- Router_r2&#45;&gt;Router_r1 -->
<g id="edge8" class="edge"><title>Router_r2&#45;&gt;Router_r1</title>
<path fill="none" stroke="black" d="M555.525,-361.983C570.473,-352.018 590.296,-338.802 606.762,-327.825"/>
<polygon fill="black" stroke="black" points="609.133,-330.451 615.512,-321.992 605.25,-324.627 609.133,-330.451"/>
</g>
<!-- Router_r4 -->
<g id="node16" class="node"><title>Router_r4</title>
<ellipse fill="none" stroke="blue" cx="533" cy="-162" rx="47.169" ry="18"/>
<text text-anchor="middle" x="533" y="-158.3" font-family="Times,serif" font-size="14.00">Router_r4</text>
</g>
<!-- Router_r2&#45;&gt;Router_r4 -->
<g id="edge9" class="edge"><title>Router_r2&#45;&gt;Router_r4</title>
<path fill="none" stroke="black" d="M529.122,-359.849C525.587,-322.832 525.315,-235.181 528.308,-190.386"/>
<polygon fill="black" stroke="black" points="531.811,-190.478 529.115,-180.232 524.833,-189.924 531.811,-190.478"/>
</g>
<!-- Router_r2&#45;&gt;Router_r4 -->
<g id="edge24" class="edge"><title>Router_r2&#45;&gt;Router_r4</title>
<path fill="none" stroke="green" d="M536.878,-359.849C540.413,-322.832 540.685,-235.181 537.692,-190.386"/>
<polygon fill="green" stroke="green" points="541.167,-189.924 536.885,-180.232 534.189,-190.478 541.167,-189.924"/>
</g>
<!-- Router_r3&#45;&gt;Router_r4 -->
<g id="edge10" class="edge"><title>Router_r3&#45;&gt;Router_r4</title>
<path fill="none" stroke="black" d="M603.804,-217.465C591.316,-207.858 575.098,-195.383 561.336,-184.797"/>
<polygon fill="black" stroke="black" points="563.2,-181.815 553.139,-178.492 558.932,-187.363 563.2,-181.815"/>
</g>
<!-- Router_r5 -->
<g id="node17" class="node"><title>Router_r5</title>
<ellipse fill="none" stroke="blue" cx="624" cy="-90" rx="47.169" ry="18"/>
<text text-anchor="middle" x="624" y="-86.3" font-family="Times,serif" font-size="14.00">Router_r5</text>
</g>
<!-- Router_r3&#45;&gt;Router_r5 -->
<g id="edge11" class="edge"><title>Router_r3&#45;&gt;Router_r5</title>
<path fill="none" stroke="black" d="M624,-215.871C624,-191.67 624,-147.211 624,-118.393"/>
<polygon fill="black" stroke="black" points="627.5,-118.189 624,-108.189 620.5,-118.189 627.5,-118.189"/>
</g>
<!-- Router_r4&#45;&gt;Computer_pc2 -->
<g id="edge5" class="edge"><title>Router_r4&#45;&gt;Computer_pc2</title>
<path fill="none" stroke="black" d="M497.156,-150.062C464.205,-139.026 415.433,-121.803 380.122,-108.798"/>
<polygon fill="black" stroke="black" points="381.137,-105.441 370.544,-105.25 378.705,-112.005 381.137,-105.441"/>
</g>
<!-- Router_r4&#45;&gt;Computer_pc2 -->
<g id="edge26" class="edge"><title>Router_r4&#45;&gt;Computer_pc2</title>
<path fill="none" stroke="green" d="M502.231,-148.161C471.399,-136.603 423.597,-119.568 387.1,-107.101"/>
<polygon fill="green" stroke="green" points="388.201,-103.779 377.606,-103.876 385.949,-110.407 388.201,-103.779"/>
</g>
<!-- Router_r4&#45;&gt;Router_r5 -->
<g id="edge12" class="edge"><title>Router_r4&#45;&gt;Router_r5</title>
<path fill="none" stroke="black" d="M553.196,-145.465C565.684,-135.858 581.902,-123.383 595.664,-112.797"/>
<polygon fill="black" stroke="black" points="598.068,-115.363 603.861,-106.492 593.8,-109.815 598.068,-115.363"/>
</g>
<!-- Router_r6 -->
<g id="node18" class="node"><title>Router_r6</title>
<ellipse fill="none" stroke="blue" cx="494" cy="-90" rx="47.169" ry="18"/>
<text text-anchor="middle" x="494" y="-86.3" font-family="Times,serif" font-size="14.00">Router_r6</text>
</g>
<!-- Router_r4&#45;&gt;Router_r6 -->
<g id="edge13" class="edge"><title>Router_r4&#45;&gt;Router_r6</title>
<path fill="none" stroke="black" d="M523.559,-144.055C518.96,-135.801 513.334,-125.701 508.228,-116.538"/>
<polygon fill="black" stroke="black" points="511.278,-114.821 503.354,-107.789 505.163,-118.228 511.278,-114.821"/>
</g>
<!-- Router_r5&#45;&gt;Computer_pc1 -->
<g id="edge4" class="edge"><title>Router_r5&#45;&gt;Computer_pc1</title>
<path fill="none" stroke="black" d="M626.225,-71.6966C627.217,-63.9827 628.408,-54.7125 629.514,-46.1124"/>
<polygon fill="black" stroke="black" points="632.997,-46.469 630.801,-36.1043 626.054,-45.5763 632.997,-46.469"/>
</g>
<!-- Router_r6&#45;&gt;Computer_pc3 -->
<g id="edge6" class="edge"><title>Router_r6&#45;&gt;Computer_pc3</title>
<path fill="none" stroke="black" d="M491.775,-71.6966C490.783,-63.9827 489.592,-54.7125 488.486,-46.1124"/>
<polygon fill="black" stroke="black" points="491.946,-45.5763 487.199,-36.1043 485.003,-46.469 491.946,-45.5763"/>
</g>
<!-- VirtualNode -->
<g id="node19" class="node"><title>VirtualNode</title>
<ellipse fill="none" stroke="gray" cx="403" cy="-522" rx="55.3436" ry="18"/>
<text text-anchor="middle" x="403" y="-518.3" font-family="Times,serif" font-size="14.00">VirtualNode</text>
</g>
<!-- VirtualNode&#45;&gt;Server_s3 -->
<g id="edge15" class="edge"><title>VirtualNode&#45;&gt;Server_s3</title>
<path fill="none" stroke="gray" d="M430.57,-506.155C450.177,-495.597 476.677,-481.328 497.81,-469.948"/>
<polygon fill="gray" stroke="gray" points="499.655,-472.93 506.8,-465.108 496.336,-466.767 499.655,-472.93"/>
</g>
<!-- VirtualNode&#45;&gt;Computer_pc2 -->
<g id="edge17" class="edge"><title>VirtualNode&#45;&gt;Computer_pc2</title>
<path fill="none" stroke="gray" d="M382.853,-505.002C354.967,-480.903 308,-432.39 308,-379 308,-379 308,-379 308,-233 308,-192.27 319.226,-146.189 327.461,-117.862"/>
<polygon fill="gray" stroke="gray" points="330.817,-118.856 330.334,-108.272 324.111,-116.847 330.817,-118.856"/>
</g>
<!-- VirtualNode&#45;&gt;Router_r2 -->
<g id="edge14" class="edge"><title>VirtualNode&#45;&gt;Router_r2</title>
<path fill="none" stroke="gray" d="M415.807,-504.426C430.135,-486.167 454.32,-456.186 477,-432 486.682,-421.676 497.919,-410.838 507.775,-401.673"/>
<polygon fill="gray" stroke="gray" points="510.339,-404.07 515.327,-394.723 505.599,-398.919 510.339,-404.07"/>
</g>
<!-- VirtualNode&#45;&gt;Router_r4 -->
<g id="edge16" class="edge"><title>VirtualNode&#45;&gt;Router_r4</title>
<path fill="none" stroke="gray" d="M404.581,-503.968C406.912,-477.332 411,-424.186 411,-379 411,-379 411,-379 411,-305 411,-250.767 462.83,-206.905 498.925,-182.934"/>
<polygon fill="gray" stroke="gray" points="501.206,-185.629 507.722,-177.275 497.418,-179.742 501.206,-185.629"/>
</g>
</g>
</svg>
