<?xml version="1.0" encoding="UTF-8" standalone="no"?>
<!DOCTYPE svg PUBLIC "-//W3C//DTD SVG 1.1//EN"
 "http://www.w3.org/Graphics/SVG/1.1/DTD/svg11.dtd">
<!-- Generated by graphviz version 2.36.0 (20140111.2315)
 -->
<!-- Title: G Pages: 1 -->
<svg width="176pt" height="347pt"
 viewBox="0.00 0.00 176.00 346.67" xmlns="http://www.w3.org/2000/svg" xmlns:xlink="http://www.w3.org/1999/xlink">
<g id="graph0" class="graph" transform="scale(1.33333 1.33333) rotate(0) translate(4 256)">
<title>G</title>
<polygon fill="white" stroke="none" points="-4,4 -4,-256 128,-256 128,4 -4,4"/>
<!-- Server_s3 -->
<g id="node1" class="node"><title>Server_s3</title>
<ellipse fill="none" stroke="black" cx="62" cy="-234" rx="45.2082" ry="18"/>
<text text-anchor="middle" x="62" y="-229.8" font-family="Times,serif" font-size="14.00">Server_s3</text>
</g>
<!-- Router_r2 -->
<g id="node2" class="node"><title>Router_r2</title>
<ellipse fill="none" stroke="black" cx="62" cy="-162" rx="45.4469" ry="18"/>
<text text-anchor="middle" x="62" y="-157.8" font-family="Times,serif" font-size="14.00">Router_r2</text>
</g>
<!-- Server_s3&#45;&gt;Router_r2 -->
<g id="edge1" class="edge"><title>Server_s3&#45;&gt;Router_r2</title>
<path fill="none" stroke="black" d="M62,-215.697C62,-207.983 62,-198.712 62,-190.112"/>
<polygon fill="black" stroke="black" points="65.5001,-190.104 62,-180.104 58.5001,-190.104 65.5001,-190.104"/>
</g>
<!-- Router_r4 -->
<g id="node3" class="node"><title>Router_r4</title>
<ellipse fill="none" stroke="black" cx="62" cy="-90" rx="45.4469" ry="18"/>
<text text-anchor="middle" x="62" y="-85.8" font-family="Times,serif" font-size="14.00">Router_r4</text>
</g>
<!-- Router_r2&#45;&gt;Router_r4 -->
<g id="edge3" class="edge"><title>Router_r2&#45;&gt;Router_r4</title>
<path fill="none" stroke="black" d="M62,-143.697C62,-135.983 62,-126.712 62,-118.112"/>
<polygon fill="black" stroke="black" points="65.5001,-118.104 62,-108.104 58.5001,-118.104 65.5001,-118.104"/>
</g>
<!-- Computer_pc2 -->
<g id="node4" class="node"><title>Computer_pc2</title>
<ellipse fill="none" stroke="black" cx="62" cy="-18" rx="62.4996" ry="18"/>
<text text-anchor="middle" x="62" y="-13.8" font-family="Times,serif" font-size="14.00">Computer_pc2</text>
</g>
<!-- Router_r4&#45;&gt;Computer_pc2 -->
<g id="edge2" class="edge"><title>Router_r4&#45;&gt;Computer_pc2</title>
<path fill="none" stroke="black" d="M62,-71.6966C62,-63.9827 62,-54.7125 62,-46.1124"/>
<polygon fill="black" stroke="black" points="65.5001,-46.1043 62,-36.1043 58.5001,-46.1044 65.5001,-46.1043"/>
</g>
</g>
</svg>
