<?xml version="1.0" encoding="UTF-8" standalone="no"?>
<!DOCTYPE svg PUBLIC "-//W3C//DTD SVG 1.1//EN"
 "http://www.w3.org/Graphics/SVG/1.1/DTD/svg11.dtd">
<!-- Generated by graphviz version 2.36.0 (20140111.2315)
 -->
<!-- Title: G Pages: 1 -->
<svg width="181pt" height="251pt"
 viewBox="0.00 0.00 181.33 250.67" xmlns="http://www.w3.org/2000/svg" xmlns:xlink="http://www.w3.org/1999/xlink">
<g id="graph0" class="graph" transform="scale(1.33333 1.33333) rotate(0) translate(4 184)">
<title>G</title>
<polygon fill="white" stroke="none" points="-4,4 -4,-184 132,-184 132,4 -4,4"/>
<!-- Server_s2 -->
<g id="node1" class="node"><title>Server_s2</title>
<ellipse fill="none" stroke="black" cx="64" cy="-162" rx="46.1964" ry="18"/>
<text text-anchor="middle" x="64" y="-158.3" font-family="Times,serif" font-size="14.00">Server_s2</text>
</g>
<!-- Router_r5 -->
<g id="node2" class="node"><title>Router_r5</title>
<ellipse fill="none" stroke="black" cx="64" cy="-90" rx="47.169" ry="18"/>
<text text-anchor="middle" x="64" y="-86.3" font-family="Times,serif" font-size="14.00">Router_r5</text>
</g>
<!-- Server_s2&#45;&gt;Router_r5 -->
<g id="edge1" class="edge"><title>Server_s2&#45;&gt;Router_r5</title>
<path fill="none" stroke="black" d="M64,-143.697C64,-135.983 64,-126.712 64,-118.112"/>
<polygon fill="black" stroke="black" points="67.5001,-118.104 64,-108.104 60.5001,-118.104 67.5001,-118.104"/>
</g>
<!-- Computer_pc1 -->
<g id="node3" class="node"><title>Computer_pc1</title>
<ellipse fill="none" stroke="black" cx="64" cy="-18" rx="64.4914" ry="18"/>
<text text-anchor="middle" x="64" y="-14.3" font-family="Times,serif" font-size="14.00">Computer_pc1</text>
</g>
<!-- Router_r5&#45;&gt;Computer_pc1 -->
<g id="edge2" class="edge"><title>Router_r5&#45;&gt;Computer_pc1</title>
<path fill="none" stroke="black" d="M64,-71.6966C64,-63.9827 64,-54.7125 64,-46.1124"/>
<polygon fill="black" stroke="black" points="67.5001,-46.1043 64,-36.1043 60.5001,-46.1044 67.5001,-46.1043"/>
</g>
</g>
</svg>
