<?xml version="1.0" encoding="UTF-8" standalone="no"?>
<!DOCTYPE svg PUBLIC "-//W3C//DTD SVG 1.1//EN"
 "http://www.w3.org/Graphics/SVG/1.1/DTD/svg11.dtd">
<!-- Generated by graphviz version 2.36.0 (20140111.2315)
 -->
<!-- Title: G Pages: 1 -->
<svg width="345pt" height="635pt"
 viewBox="0.00 0.00 345.33 634.67" xmlns="http://www.w3.org/2000/svg" xmlns:xlink="http://www.w3.org/1999/xlink">
<g id="graph0" class="graph" transform="scale(1.33333 1.33333) rotate(0) translate(4 472)">
<title>G</title>
<polygon fill="white" stroke="none" points="-4,4 -4,-472 255,-472 255,4 -4,4"/>
<!-- Server_s1 -->
<g id="node1" class="node"><title>Server_s1</title>
<ellipse fill="none" stroke="black" cx="66" cy="-450" rx="45.2082" ry="18"/>
<text text-anchor="middle" x="66" y="-445.8" font-family="Times,serif" font-size="14.00">Server_s1</text>
</g>
<!-- Router_r1 -->
<g id="node2" class="node"><title>Router_r1</title>
<ellipse fill="none" stroke="black" cx="66" cy="-378" rx="45.4469" ry="18"/>
<text text-anchor="middle" x="66" y="-373.8" font-family="Times,serif" font-size="14.00">Router_r1</text>
</g>
<!-- Server_s1&#45;&gt;Router_r1 -->
<g id="edge1" class="edge"><title>Server_s1&#45;&gt;Router_r1</title>
<path fill="none" stroke="black" d="M66,-431.697C66,-423.983 66,-414.712 66,-406.112"/>
<polygon fill="black" stroke="black" points="69.5001,-406.104 66,-396.104 62.5001,-406.104 69.5001,-406.104"/>
</g>
<!-- Router_r3 -->
<g id="node5" class="node"><title>Router_r3</title>
<ellipse fill="none" stroke="black" cx="121" cy="-306" rx="45.4469" ry="18"/>
<text text-anchor="middle" x="121" y="-301.8" font-family="Times,serif" font-size="14.00">Router_r3</text>
</g>
<!-- Router_r1&#45;&gt;Router_r3 -->
<g id="edge3" class="edge"><title>Router_r1&#45;&gt;Router_r3</title>
<path fill="none" stroke="black" d="M79.0342,-360.411C85.8153,-351.781 94.2369,-341.062 101.752,-331.497"/>
<polygon fill="black" stroke="black" points="104.633,-333.496 108.059,-323.47 99.129,-329.171 104.633,-333.496"/>
</g>
<!-- Server_s2 -->
<g id="node3" class="node"><title>Server_s2</title>
<ellipse fill="none" stroke="black" cx="176" cy="-450" rx="45.2082" ry="18"/>
<text text-anchor="middle" x="176" y="-445.8" font-family="Times,serif" font-size="14.00">Server_s2</text>
</g>
<!-- Router_r2 -->
<g id="node4" class="node"><title>Router_r2</title>
<ellipse fill="none" stroke="black" cx="176" cy="-378" rx="45.4469" ry="18"/>
<text text-anchor="middle" x="176" y="-373.8" font-family="Times,serif" font-size="14.00">Router_r2</text>
</g>
<!-- Server_s2&#45;&gt;Router_r2 -->
<g id="edge2" class="edge"><title>Server_s2&#45;&gt;Router_r2</title>
<path fill="none" stroke="black" d="M176,-431.697C176,-423.983 176,-414.712 176,-406.112"/>
<polygon fill="black" stroke="black" points="179.5,-406.104 176,-396.104 172.5,-406.104 179.5,-406.104"/>
</g>
<!-- Router_r2&#45;&gt;Router_r3 -->
<g id="edge4" class="edge"><title>Router_r2&#45;&gt;Router_r3</title>
<path fill="none" stroke="black" d="M162.966,-360.411C156.185,-351.781 147.763,-341.062 140.248,-331.497"/>
<polygon fill="black" stroke="black" points="142.871,-329.171 133.941,-323.47 137.367,-333.496 142.871,-329.171"/>
</g>
<!-- Router_r4 -->
<g id="node6" class="node"><title>Router_r4</title>
<ellipse fill="none" stroke="black" cx="121" cy="-234" rx="45.4469" ry="18"/>
<text text-anchor="middle" x="121" y="-229.8" font-family="Times,serif" font-size="14.00">Router_r4</text>
</g>
<!-- Router_r3&#45;&gt;Router_r4 -->
<g id="edge5" class="edge"><title>Router_r3&#45;&gt;Router_r4</title>
<path fill="none" stroke="black" d="M121,-287.697C121,-279.983 121,-270.712 121,-262.112"/>
<polygon fill="black" stroke="black" points="124.5,-262.104 121,-252.104 117.5,-262.104 124.5,-262.104"/>
</g>
<!-- Router_r5 -->
<g id="node7" class="node"><title>Router_r5</title>
<ellipse fill="none" stroke="black" cx="66" cy="-162" rx="45.4469" ry="18"/>
<text text-anchor="middle" x="66" y="-157.8" font-family="Times,serif" font-size="14.00">Router_r5</text>
</g>
<!-- Router_r4&#45;&gt;Router_r5 -->
<g id="edge6" class="edge"><title>Router_r4&#45;&gt;Router_r5</title>
<path fill="none" stroke="black" d="M107.966,-216.411C101.185,-207.781 92.7631,-197.062 85.2478,-187.497"/>
<polygon fill="black" stroke="black" points="87.871,-185.171 78.9407,-179.47 82.3668,-189.496 87.871,-185.171"/>
</g>
<!-- Router_r6 -->
<g id="node8" class="node"><title>Router_r6</title>
<ellipse fill="none" stroke="black" cx="184" cy="-162" rx="45.4469" ry="18"/>
<text text-anchor="middle" x="184" y="-157.8" font-family="Times,serif" font-size="14.00">Router_r6</text>
</g>
<!-- Router_r4&#45;&gt;Router_r6 -->
<g id="edge7" class="edge"><title>Router_r4&#45;&gt;Router_r6</title>
<path fill="none" stroke="black" d="M135.612,-216.765C143.643,-207.841 153.753,-196.608 162.653,-186.719"/>
<polygon fill="black" stroke="black" points="165.379,-188.922 169.467,-179.147 160.176,-184.239 165.379,-188.922"/>
</g>
<!-- Computer_pc1 -->
<g id="node9" class="node"><title>Computer_pc1</title>
<ellipse fill="none" stroke="black" cx="62" cy="-90" rx="62.4996" ry="18"/>
<text text-anchor="middle" x="62" y="-85.8" font-family="Times,serif" font-size="14.00">Computer_pc1</text>
</g>
<!-- Router_r5&#45;&gt;Computer_pc1 -->
<g id="edge8" class="edge"><title>Router_r5&#45;&gt;Computer_pc1</title>
<path fill="none" stroke="black" d="M65.0112,-143.697C64.5704,-135.983 64.0407,-126.712 63.5493,-118.112"/>
<polygon fill="black" stroke="black" points="67.0423,-117.888 62.9774,-108.104 60.0537,-118.288 67.0423,-117.888"/>
</g>
<!-- Router_r7 -->
<g id="node10" class="node"><title>Router_r7</title>
<ellipse fill="none" stroke="black" cx="189" cy="-90" rx="45.4469" ry="18"/>
<text text-anchor="middle" x="189" y="-85.8" font-family="Times,serif" font-size="14.00">Router_r7</text>
</g>
<!-- Router_r6&#45;&gt;Router_r7 -->
<g id="edge9" class="edge"><title>Router_r6&#45;&gt;Router_r7</title>
<path fill="none" stroke="black" d="M185.236,-143.697C185.787,-135.983 186.449,-126.712 187.063,-118.112"/>
<polygon fill="black" stroke="black" points="190.557,-118.328 187.778,-108.104 183.575,-117.83 190.557,-118.328"/>
</g>
<!-- Computer_pc2 -->
<g id="node11" class="node"><title>Computer_pc2</title>
<ellipse fill="none" stroke="black" cx="189" cy="-18" rx="62.4996" ry="18"/>
<text text-anchor="middle" x="189" y="-13.8" font-family="Times,serif" font-size="14.00">Computer_pc2</text>
</g>
<!-- Router_r7&#45;&gt;Computer_pc2 -->
<g id="edge10" class="edge"><title>Router_r7&#45;&gt;Computer_pc2</title>
<path fill="none" stroke="black" d="M189,-71.6966C189,-63.9827 189,-54.7125 189,-46.1124"/>
<polygon fill="black" stroke="black" points="192.5,-46.1043 189,-36.1043 185.5,-46.1044 192.5,-46.1043"/>
</g>
</g>
</svg>
