<?xml version="1.0" encoding="UTF-8" standalone="no"?>
<!DOCTYPE svg PUBLIC "-//W3C//DTD SVG 1.1//EN"
 "http://www.w3.org/Graphics/SVG/1.1/DTD/svg11.dtd">
<!-- Generated by graphviz version 2.36.0 (20140111.2315)
 -->
<!-- Title: G Pages: 1 -->
<svg width="355pt" height="635pt"
 viewBox="0.00 0.00 354.67 634.67" xmlns="http://www.w3.org/2000/svg" xmlns:xlink="http://www.w3.org/1999/xlink">
<g id="graph0" class="graph" transform="scale(1.33333 1.33333) rotate(0) translate(4 472)">
<title>G</title>
<polygon fill="white" stroke="none" points="-4,4 -4,-472 262,-472 262,4 -4,4"/>
<!-- Server_s1 -->
<g id="node1" class="node"><title>Server_s1</title>
<ellipse fill="none" stroke="black" cx="68" cy="-450" rx="46.1964" ry="18"/>
<text text-anchor="middle" x="68" y="-446.3" font-family="Times,serif" font-size="14.00">Server_s1</text>
</g>
<!-- Router_r1 -->
<g id="node2" class="node"><title>Router_r1</title>
<ellipse fill="none" stroke="black" cx="68" cy="-378" rx="47.169" ry="18"/>
<text text-anchor="middle" x="68" y="-374.3" font-family="Times,serif" font-size="14.00">Router_r1</text>
</g>
<!-- Server_s1&#45;&gt;Router_r1 -->
<g id="edge1" class="edge"><title>Server_s1&#45;&gt;Router_r1</title>
<path fill="none" stroke="black" d="M68,-431.697C68,-423.983 68,-414.712 68,-406.112"/>
<polygon fill="black" stroke="black" points="71.5001,-406.104 68,-396.104 64.5001,-406.104 71.5001,-406.104"/>
</g>
<!-- Router_r3 -->
<g id="node5" class="node"><title>Router_r3</title>
<ellipse fill="none" stroke="black" cx="124" cy="-306" rx="47.169" ry="18"/>
<text text-anchor="middle" x="124" y="-302.3" font-family="Times,serif" font-size="14.00">Router_r3</text>
</g>
<!-- Router_r1&#45;&gt;Router_r3 -->
<g id="edge3" class="edge"><title>Router_r1&#45;&gt;Router_r3</title>
<path fill="none" stroke="black" d="M81.2712,-360.411C88.1756,-351.781 96.7503,-341.062 104.402,-331.497"/>
<polygon fill="black" stroke="black" points="107.31,-333.465 110.824,-323.47 101.844,-329.092 107.31,-333.465"/>
</g>
<!-- Server_s2 -->
<g id="node3" class="node"><title>Server_s2</title>
<ellipse fill="none" stroke="black" cx="181" cy="-450" rx="46.1964" ry="18"/>
<text text-anchor="middle" x="181" y="-446.3" font-family="Times,serif" font-size="14.00">Server_s2</text>
</g>
<!-- Router_r2 -->
<g id="node4" class="node"><title>Router_r2</title>
<ellipse fill="none" stroke="black" cx="181" cy="-378" rx="47.169" ry="18"/>
<text text-anchor="middle" x="181" y="-374.3" font-family="Times,serif" font-size="14.00">Router_r2</text>
</g>
<!-- Server_s2&#45;&gt;Router_r2 -->
<g id="edge2" class="edge"><title>Server_s2&#45;&gt;Router_r2</title>
<path fill="none" stroke="black" d="M181,-431.697C181,-423.983 181,-414.712 181,-406.112"/>
<polygon fill="black" stroke="black" points="184.5,-406.104 181,-396.104 177.5,-406.104 184.5,-406.104"/>
</g>
<!-- Router_r2&#45;&gt;Router_r3 -->
<g id="edge4" class="edge"><title>Router_r2&#45;&gt;Router_r3</title>
<path fill="none" stroke="black" d="M167.492,-360.411C160.464,-351.781 151.736,-341.062 143.948,-331.497"/>
<polygon fill="black" stroke="black" points="146.44,-329.014 137.411,-323.47 141.012,-333.434 146.44,-329.014"/>
</g>
<!-- Router_r4 -->
<g id="node6" class="node"><title>Router_r4</title>
<ellipse fill="none" stroke="black" cx="124" cy="-234" rx="47.169" ry="18"/>
<text text-anchor="middle" x="124" y="-230.3" font-family="Times,serif" font-size="14.00">Router_r4</text>
</g>
<!-- Router_r3&#45;&gt;Router_r4 -->
<g id="edge5" class="edge"><title>Router_r3&#45;&gt;Router_r4</title>
<path fill="none" stroke="black" d="M124,-287.697C124,-279.983 124,-270.712 124,-262.112"/>
<polygon fill="black" stroke="black" points="127.5,-262.104 124,-252.104 120.5,-262.104 127.5,-262.104"/>
</g>
<!-- Router_r5 -->
<g id="node7" class="node"><title>Router_r5</title>
<ellipse fill="none" stroke="black" cx="68" cy="-162" rx="47.169" ry="18"/>
<text text-anchor="middle" x="68" y="-158.3" font-family="Times,serif" font-size="14.00">Router_r5</text>
</g>
<!-- Router_r4&#45;&gt;Router_r5 -->
<g id="edge6" class="edge"><title>Router_r4&#45;&gt;Router_r5</title>
<path fill="none" stroke="black" d="M110.729,-216.411C103.824,-207.781 95.2497,-197.062 87.5977,-187.497"/>
<polygon fill="black" stroke="black" points="90.156,-185.092 81.176,-179.47 84.6899,-189.465 90.156,-185.092"/>
</g>
<!-- Router_r6 -->
<g id="node8" class="node"><title>Router_r6</title>
<ellipse fill="none" stroke="black" cx="189" cy="-162" rx="47.169" ry="18"/>
<text text-anchor="middle" x="189" y="-158.3" font-family="Times,serif" font-size="14.00">Router_r6</text>
</g>
<!-- Router_r4&#45;&gt;Router_r6 -->
<g id="edge7" class="edge"><title>Router_r4&#45;&gt;Router_r6</title>
<path fill="none" stroke="black" d="M139.076,-216.765C147.362,-207.841 157.793,-196.608 166.975,-186.719"/>
<polygon fill="black" stroke="black" points="169.766,-188.857 174.006,-179.147 164.637,-184.094 169.766,-188.857"/>
</g>
<!-- Computer_pc1 -->
<g id="node9" class="node"><title>Computer_pc1</title>
<ellipse fill="none" stroke="black" cx="64" cy="-90" rx="64.4914" ry="18"/>
<text text-anchor="middle" x="64" y="-86.3" font-family="Times,serif" font-size="14.00">Computer_pc1</text>
</g>
<!-- Router_r5&#45;&gt;Computer_pc1 -->
<g id="edge8" class="edge"><title>Router_r5&#45;&gt;Computer_pc1</title>
<path fill="none" stroke="black" d="M67.0112,-143.697C66.5704,-135.983 66.0407,-126.712 65.5493,-118.112"/>
<polygon fill="black" stroke="black" points="69.0423,-117.888 64.9774,-108.104 62.0537,-118.288 69.0423,-117.888"/>
</g>
<!-- Router_r7 -->
<g id="node10" class="node"><title>Router_r7</title>
<ellipse fill="none" stroke="black" cx="194" cy="-90" rx="47.169" ry="18"/>
<text text-anchor="middle" x="194" y="-86.3" font-family="Times,serif" font-size="14.00">Router_r7</text>
</g>
<!-- Router_r6&#45;&gt;Router_r7 -->
<g id="edge9" class="edge"><title>Router_r6&#45;&gt;Router_r7</title>
<path fill="none" stroke="black" d="M190.236,-143.697C190.787,-135.983 191.449,-126.712 192.063,-118.112"/>
<polygon fill="black" stroke="black" points="195.557,-118.328 192.778,-108.104 188.575,-117.83 195.557,-118.328"/>
</g>
<!-- Computer_pc2 -->
<g id="node11" class="node"><title>Computer_pc2</title>
<ellipse fill="none" stroke="black" cx="194" cy="-18" rx="64.4914" ry="18"/>
<text text-anchor="middle" x="194" y="-14.3" font-family="Times,serif" font-size="14.00">Computer_pc2</text>
</g>
<!-- Router_r7&#45;&gt;Computer_pc2 -->
<g id="edge10" class="edge"><title>Router_r7&#45;&gt;Computer_pc2</title>
<path fill="none" stroke="black" d="M194,-71.6966C194,-63.9827 194,-54.7125 194,-46.1124"/>
<polygon fill="black" stroke="black" points="197.5,-46.1043 194,-36.1043 190.5,-46.1044 197.5,-46.1043"/>
</g>
</g>
</svg>
