<?xml version="1.0" encoding="UTF-8" standalone="no"?>
<!DOCTYPE svg PUBLIC "-//W3C//DTD SVG 1.1//EN"
 "http://www.w3.org/Graphics/SVG/1.1/DTD/svg11.dtd">
<!-- Generated by graphviz version 2.36.0 (20140111.2315)
 -->
<!-- Title: G Pages: 1 -->
<svg width="620pt" height="635pt"
 viewBox="0.00 0.00 620.00 634.67" xmlns="http://www.w3.org/2000/svg" xmlns:xlink="http://www.w3.org/1999/xlink">
<g id="graph0" class="graph" transform="scale(1.33333 1.33333) rotate(0) translate(4 472)">
<title>G</title>
<polygon fill="white" stroke="none" points="-4,4 -4,-472 461,-472 461,4 -4,4"/>
<!-- Server_s1 -->
<g id="node1" class="node"><title>Server_s1</title>
<ellipse fill="none" stroke="black" cx="45" cy="-378" rx="45.2082" ry="18"/>
<text text-anchor="middle" x="45" y="-373.8" font-family="Times,serif" font-size="14.00">Server_s1</text>
</g>
<!-- Router_r1 -->
<g id="node2" class="node"><title>Router_r1</title>
<ellipse fill="none" stroke="black" cx="154" cy="-306" rx="45.4469" ry="18"/>
<text text-anchor="middle" x="154" y="-301.8" font-family="Times,serif" font-size="14.00">Router_r1</text>
</g>
<!-- Server_s1&#45;&gt;Router_r1 -->
<g id="edge1" class="edge"><title>Server_s1&#45;&gt;Router_r1</title>
<path fill="none" stroke="black" d="M67.85,-362.326C83.6916,-352.152 104.993,-338.472 122.451,-327.261"/>
<polygon fill="black" stroke="black" points="124.657,-330.004 131.18,-321.655 120.875,-324.114 124.657,-330.004"/>
</g>
<!-- Router_r3 -->
<g id="node12" class="node"><title>Router_r3</title>
<ellipse fill="none" stroke="black" cx="154" cy="-234" rx="45.4469" ry="18"/>
<text text-anchor="middle" x="154" y="-229.8" font-family="Times,serif" font-size="14.00">Router_r3</text>
</g>
<!-- Router_r1&#45;&gt;Router_r3 -->
<g id="edge7" class="edge"><title>Router_r1&#45;&gt;Router_r3</title>
<path fill="none" stroke="black" d="M154,-287.697C154,-279.983 154,-270.712 154,-262.112"/>
<polygon fill="black" stroke="black" points="157.5,-262.104 154,-252.104 150.5,-262.104 157.5,-262.104"/>
</g>
<!-- Server_s2 -->
<g id="node3" class="node"><title>Server_s2</title>
<ellipse fill="none" stroke="black" cx="154" cy="-378" rx="45.2082" ry="18"/>
<text text-anchor="middle" x="154" y="-373.8" font-family="Times,serif" font-size="14.00">Server_s2</text>
</g>
<!-- Server_s2&#45;&gt;Router_r1 -->
<g id="edge2" class="edge"><title>Server_s2&#45;&gt;Router_r1</title>
<path fill="none" stroke="black" d="M154,-359.697C154,-351.983 154,-342.712 154,-334.112"/>
<polygon fill="black" stroke="black" points="157.5,-334.104 154,-324.104 150.5,-334.104 157.5,-334.104"/>
</g>
<!-- Server_s3 -->
<g id="node4" class="node"><title>Server_s3</title>
<ellipse fill="none" stroke="black" cx="263" cy="-450" rx="45.2082" ry="18"/>
<text text-anchor="middle" x="263" y="-445.8" font-family="Times,serif" font-size="14.00">Server_s3</text>
</g>
<!-- Router_r2 -->
<g id="node5" class="node"><title>Router_r2</title>
<ellipse fill="none" stroke="black" cx="263" cy="-378" rx="45.4469" ry="18"/>
<text text-anchor="middle" x="263" y="-373.8" font-family="Times,serif" font-size="14.00">Router_r2</text>
</g>
<!-- Server_s3&#45;&gt;Router_r2 -->
<g id="edge3" class="edge"><title>Server_s3&#45;&gt;Router_r2</title>
<path fill="none" stroke="black" d="M263,-431.697C263,-423.983 263,-414.712 263,-406.112"/>
<polygon fill="black" stroke="black" points="266.5,-406.104 263,-396.104 259.5,-406.104 266.5,-406.104"/>
</g>
<!-- Router_r2&#45;&gt;Router_r1 -->
<g id="edge8" class="edge"><title>Router_r2&#45;&gt;Router_r1</title>
<path fill="none" stroke="black" d="M240.15,-362.326C224.308,-352.152 203.007,-338.472 185.549,-327.261"/>
<polygon fill="black" stroke="black" points="187.125,-324.114 176.82,-321.655 183.343,-330.004 187.125,-324.114"/>
</g>
<!-- Router_r4 -->
<g id="node8" class="node"><title>Router_r4</title>
<ellipse fill="none" stroke="black" cx="263" cy="-162" rx="45.4469" ry="18"/>
<text text-anchor="middle" x="263" y="-157.8" font-family="Times,serif" font-size="14.00">Router_r4</text>
</g>
<!-- Router_r2&#45;&gt;Router_r4 -->
<g id="edge9" class="edge"><title>Router_r2&#45;&gt;Router_r4</title>
<path fill="none" stroke="black" d="M263,-359.849C263,-322.832 263,-235.181 263,-190.386"/>
<polygon fill="black" stroke="black" points="266.5,-190.232 263,-180.232 259.5,-190.232 266.5,-190.232"/>
</g>
<!-- Router_r5 -->
<g id="node6" class="node"><title>Router_r5</title>
<ellipse fill="none" stroke="black" cx="141" cy="-90" rx="45.4469" ry="18"/>
<text text-anchor="middle" x="141" y="-85.8" font-family="Times,serif" font-size="14.00">Router_r5</text>
</g>
<!-- Computer_pc1 -->
<g id="node7" class="node"><title>Computer_pc1</title>
<ellipse fill="none" stroke="black" cx="141" cy="-18" rx="62.4996" ry="18"/>
<text text-anchor="middle" x="141" y="-13.8" font-family="Times,serif" font-size="14.00">Computer_pc1</text>
</g>
<!-- Router_r5&#45;&gt;Computer_pc1 -->
<g id="edge4" class="edge"><title>Router_r5&#45;&gt;Computer_pc1</title>
<path fill="none" stroke="black" d="M141,-71.6966C141,-63.9827 141,-54.7125 141,-46.1124"/>
<polygon fill="black" stroke="black" points="144.5,-46.1043 141,-36.1043 137.5,-46.1044 144.5,-46.1043"/>
</g>
<!-- Router_r4&#45;&gt;Router_r5 -->
<g id="edge12" class="edge"><title>Router_r4&#45;&gt;Router_r5</title>
<path fill="none" stroke="black" d="M238.311,-146.834C219.956,-136.303 194.704,-121.814 174.524,-110.235"/>
<polygon fill="black" stroke="black" points="176.067,-107.085 165.652,-105.144 172.584,-113.157 176.067,-107.085"/>
</g>
<!-- Computer_pc2 -->
<g id="node9" class="node"><title>Computer_pc2</title>
<ellipse fill="none" stroke="black" cx="268" cy="-90" rx="62.4996" ry="18"/>
<text text-anchor="middle" x="268" y="-85.8" font-family="Times,serif" font-size="14.00">Computer_pc2</text>
</g>
<!-- Router_r4&#45;&gt;Computer_pc2 -->
<g id="edge5" class="edge"><title>Router_r4&#45;&gt;Computer_pc2</title>
<path fill="none" stroke="black" d="M264.236,-143.697C264.787,-135.983 265.449,-126.712 266.063,-118.112"/>
<polygon fill="black" stroke="black" points="269.557,-118.328 266.778,-108.104 262.575,-117.83 269.557,-118.328"/>
</g>
<!-- Router_r6 -->
<g id="node10" class="node"><title>Router_r6</title>
<ellipse fill="none" stroke="black" cx="395" cy="-90" rx="45.4469" ry="18"/>
<text text-anchor="middle" x="395" y="-85.8" font-family="Times,serif" font-size="14.00">Router_r6</text>
</g>
<!-- Router_r4&#45;&gt;Router_r6 -->
<g id="edge13" class="edge"><title>Router_r4&#45;&gt;Router_r6</title>
<path fill="none" stroke="black" d="M289.079,-147.17C309.328,-136.432 337.607,-121.436 359.852,-109.639"/>
<polygon fill="black" stroke="black" points="361.78,-112.578 368.975,-104.801 358.501,-106.394 361.78,-112.578"/>
</g>
<!-- Computer_pc3 -->
<g id="node11" class="node"><title>Computer_pc3</title>
<ellipse fill="none" stroke="black" cx="395" cy="-18" rx="62.4996" ry="18"/>
<text text-anchor="middle" x="395" y="-13.8" font-family="Times,serif" font-size="14.00">Computer_pc3</text>
</g>
<!-- Router_r6&#45;&gt;Computer_pc3 -->
<g id="edge6" class="edge"><title>Router_r6&#45;&gt;Computer_pc3</title>
<path fill="none" stroke="black" d="M395,-71.6966C395,-63.9827 395,-54.7125 395,-46.1124"/>
<polygon fill="black" stroke="black" points="398.5,-46.1043 395,-36.1043 391.5,-46.1044 398.5,-46.1043"/>
</g>
<!-- Router_r3&#45;&gt;Router_r5 -->
<g id="edge11" class="edge"><title>Router_r3&#45;&gt;Router_r5</title>
<path fill="none" stroke="black" d="M152.432,-215.871C150.216,-191.67 146.146,-147.211 143.508,-118.393"/>
<polygon fill="black" stroke="black" points="146.971,-117.829 142.574,-108.189 140,-118.467 146.971,-117.829"/>
</g>
<!-- Router_r3&#45;&gt;Router_r4 -->
<g id="edge10" class="edge"><title>Router_r3&#45;&gt;Router_r4</title>
<path fill="none" stroke="black" d="M176.85,-218.326C192.692,-208.152 213.993,-194.472 231.451,-183.261"/>
<polygon fill="black" stroke="black" points="233.657,-186.004 240.18,-177.655 229.875,-180.114 233.657,-186.004"/>
</g>
</g>
</svg>
