<?xml version="1.0" encoding="UTF-8" standalone="no"?>
<!DOCTYPE svg PUBLIC "-//W3C//DTD SVG 1.1//EN"
 "http://www.w3.org/Graphics/SVG/1.1/DTD/svg11.dtd">
<!-- Generated by graphviz version 2.36.0 (20140111.2315)
 -->
<!-- Title: G Pages: 1 -->
<svg width="636pt" height="635pt"
 viewBox="0.00 0.00 636.00 634.67" xmlns="http://www.w3.org/2000/svg" xmlns:xlink="http://www.w3.org/1999/xlink">
<g id="graph0" class="graph" transform="scale(1.33333 1.33333) rotate(0) translate(4 472)">
<title>G</title>
<polygon fill="white" stroke="none" points="-4,4 -4,-472 473,-472 473,4 -4,4"/>
<!-- Server_s1 -->
<g id="node1" class="node"><title>Server_s1</title>
<ellipse fill="none" stroke="black" cx="46" cy="-378" rx="46.1964" ry="18"/>
<text text-anchor="middle" x="46" y="-374.3" font-family="Times,serif" font-size="14.00">Server_s1</text>
</g>
<!-- Router_r1 -->
<g id="node2" class="node"><title>Router_r1</title>
<ellipse fill="none" stroke="black" cx="158" cy="-306" rx="47.169" ry="18"/>
<text text-anchor="middle" x="158" y="-302.3" font-family="Times,serif" font-size="14.00">Router_r1</text>
</g>
<!-- Server_s1&#45;&gt;Router_r1 -->
<g id="edge1" class="edge"><title>Server_s1&#45;&gt;Router_r1</title>
<path fill="none" stroke="black" d="M69.4789,-362.326C85.7565,-352.152 107.644,-338.472 125.582,-327.261"/>
<polygon fill="black" stroke="black" points="127.927,-329.923 134.552,-321.655 124.217,-323.987 127.927,-329.923"/>
</g>
<!-- Router_r3 -->
<g id="node12" class="node"><title>Router_r3</title>
<ellipse fill="none" stroke="black" cx="158" cy="-234" rx="47.169" ry="18"/>
<text text-anchor="middle" x="158" y="-230.3" font-family="Times,serif" font-size="14.00">Router_r3</text>
</g>
<!-- Router_r1&#45;&gt;Router_r3 -->
<g id="edge7" class="edge"><title>Router_r1&#45;&gt;Router_r3</title>
<path fill="none" stroke="black" d="M158,-287.697C158,-279.983 158,-270.712 158,-262.112"/>
<polygon fill="black" stroke="black" points="161.5,-262.104 158,-252.104 154.5,-262.104 161.5,-262.104"/>
</g>
<!-- Server_s2 -->
<g id="node3" class="node"><title>Server_s2</title>
<ellipse fill="none" stroke="black" cx="158" cy="-378" rx="46.1964" ry="18"/>
<text text-anchor="middle" x="158" y="-374.3" font-family="Times,serif" font-size="14.00">Server_s2</text>
</g>
<!-- Server_s2&#45;&gt;Router_r1 -->
<g id="edge2" class="edge"><title>Server_s2&#45;&gt;Router_r1</title>
<path fill="none" stroke="black" d="M158,-359.697C158,-351.983 158,-342.712 158,-334.112"/>
<polygon fill="black" stroke="black" points="161.5,-334.104 158,-324.104 154.5,-334.104 161.5,-334.104"/>
</g>
<!-- Server_s3 -->
<g id="node4" class="node"><title>Server_s3</title>
<ellipse fill="none" stroke="black" cx="270" cy="-450" rx="46.1964" ry="18"/>
<text text-anchor="middle" x="270" y="-446.3" font-family="Times,serif" font-size="14.00">Server_s3</text>
</g>
<!-- Router_r2 -->
<g id="node5" class="node"><title>Router_r2</title>
<ellipse fill="none" stroke="black" cx="270" cy="-378" rx="47.169" ry="18"/>
<text text-anchor="middle" x="270" y="-374.3" font-family="Times,serif" font-size="14.00">Router_r2</text>
</g>
<!-- Server_s3&#45;&gt;Router_r2 -->
<g id="edge3" class="edge"><title>Server_s3&#45;&gt;Router_r2</title>
<path fill="none" stroke="black" d="M270,-431.697C270,-423.983 270,-414.712 270,-406.112"/>
<polygon fill="black" stroke="black" points="273.5,-406.104 270,-396.104 266.5,-406.104 273.5,-406.104"/>
</g>
<!-- Router_r2&#45;&gt;Router_r1 -->
<g id="edge8" class="edge"><title>Router_r2&#45;&gt;Router_r1</title>
<path fill="none" stroke="black" d="M246.521,-362.326C230.243,-352.152 208.356,-338.472 190.418,-327.261"/>
<polygon fill="black" stroke="black" points="191.783,-323.987 181.448,-321.655 188.073,-329.923 191.783,-323.987"/>
</g>
<!-- Router_r4 -->
<g id="node8" class="node"><title>Router_r4</title>
<ellipse fill="none" stroke="black" cx="270" cy="-162" rx="47.169" ry="18"/>
<text text-anchor="middle" x="270" y="-158.3" font-family="Times,serif" font-size="14.00">Router_r4</text>
</g>
<!-- Router_r2&#45;&gt;Router_r4 -->
<g id="edge9" class="edge"><title>Router_r2&#45;&gt;Router_r4</title>
<path fill="none" stroke="black" d="M270,-359.849C270,-322.832 270,-235.181 270,-190.386"/>
<polygon fill="black" stroke="black" points="273.5,-190.232 270,-180.232 266.5,-190.232 273.5,-190.232"/>
</g>
<!-- Router_r5 -->
<g id="node6" class="node"><title>Router_r5</title>
<ellipse fill="none" stroke="black" cx="145" cy="-90" rx="47.169" ry="18"/>
<text text-anchor="middle" x="145" y="-86.3" font-family="Times,serif" font-size="14.00">Router_r5</text>
</g>
<!-- Computer_pc1 -->
<g id="node7" class="node"><title>Computer_pc1</title>
<ellipse fill="none" stroke="black" cx="145" cy="-18" rx="64.4914" ry="18"/>
<text text-anchor="middle" x="145" y="-14.3" font-family="Times,serif" font-size="14.00">Computer_pc1</text>
</g>
<!-- Router_r5&#45;&gt;Computer_pc1 -->
<g id="edge4" class="edge"><title>Router_r5&#45;&gt;Computer_pc1</title>
<path fill="none" stroke="black" d="M145,-71.6966C145,-63.9827 145,-54.7125 145,-46.1124"/>
<polygon fill="black" stroke="black" points="148.5,-46.1043 145,-36.1043 141.5,-46.1044 148.5,-46.1043"/>
</g>
<!-- Router_r4&#45;&gt;Router_r5 -->
<g id="edge12" class="edge"><title>Router_r4&#45;&gt;Router_r5</title>
<path fill="none" stroke="black" d="M244.403,-146.666C225.613,-136.143 199.889,-121.738 179.318,-110.218"/>
<polygon fill="black" stroke="black" points="180.998,-107.148 170.563,-105.315 177.578,-113.255 180.998,-107.148"/>
</g>
<!-- Computer_pc2 -->
<g id="node9" class="node"><title>Computer_pc2</title>
<ellipse fill="none" stroke="black" cx="275" cy="-90" rx="64.4914" ry="18"/>
<text text-anchor="middle" x="275" y="-86.3" font-family="Times,serif" font-size="14.00">Computer_pc2</text>
</g>
<!-- Router_r4&#45;&gt;Computer_pc2 -->
<g id="edge5" class="edge"><title>Router_r4&#45;&gt;Computer_pc2</title>
<path fill="none" stroke="black" d="M271.236,-143.697C271.787,-135.983 272.449,-126.712 273.063,-118.112"/>
<polygon fill="black" stroke="black" points="276.557,-118.328 273.778,-108.104 269.575,-117.83 276.557,-118.328"/>
</g>
<!-- Router_r6 -->
<g id="node10" class="node"><title>Router_r6</title>
<ellipse fill="none" stroke="black" cx="405" cy="-90" rx="47.169" ry="18"/>
<text text-anchor="middle" x="405" y="-86.3" font-family="Times,serif" font-size="14.00">Router_r6</text>
</g>
<!-- Router_r4&#45;&gt;Router_r6 -->
<g id="edge13" class="edge"><title>Router_r4&#45;&gt;Router_r6</title>
<path fill="none" stroke="black" d="M296.995,-147.003C317.689,-136.272 346.444,-121.362 369.081,-109.625"/>
<polygon fill="black" stroke="black" points="370.786,-112.683 378.052,-104.973 367.563,-106.469 370.786,-112.683"/>
</g>
<!-- Computer_pc3 -->
<g id="node11" class="node"><title>Computer_pc3</title>
<ellipse fill="none" stroke="black" cx="405" cy="-18" rx="64.4914" ry="18"/>
<text text-anchor="middle" x="405" y="-14.3" font-family="Times,serif" font-size="14.00">Computer_pc3</text>
</g>
<!-- Router_r6&#45;&gt;Computer_pc3 -->
<g id="edge6" class="edge"><title>Router_r6&#45;&gt;Computer_pc3</title>
<path fill="none" stroke="black" d="M405,-71.6966C405,-63.9827 405,-54.7125 405,-46.1124"/>
<polygon fill="black" stroke="black" points="408.5,-46.1043 405,-36.1043 401.5,-46.1044 408.5,-46.1043"/>
</g>
<!-- Router_r3&#45;&gt;Router_r5 -->
<g id="edge11" class="edge"><title>Router_r3&#45;&gt;Router_r5</title>
<path fill="none" stroke="black" d="M156.432,-215.871C154.216,-191.67 150.146,-147.211 147.508,-118.393"/>
<polygon fill="black" stroke="black" points="150.971,-117.829 146.574,-108.189 144,-118.467 150.971,-117.829"/>
</g>
<!-- Router_r3&#45;&gt;Router_r4 -->
<g id="edge10" class="edge"><title>Router_r3&#45;&gt;Router_r4</title>
<path fill="none" stroke="black" d="M181.479,-218.326C197.757,-208.152 219.644,-194.472 237.582,-183.261"/>
<polygon fill="black" stroke="black" points="239.927,-185.923 246.552,-177.655 236.217,-179.987 239.927,-185.923"/>
</g>
</g>
</svg>
