<?xml version="1.0" encoding="UTF-8" standalone="no"?>
<!DOCTYPE svg PUBLIC "-//W3C//DTD SVG 1.1//EN"
 "http://www.w3.org/Graphics/SVG/1.1/DTD/svg11.dtd">
<!-- Generated by graphviz version 2.36.0 (20140111.2315)
 -->
<!-- Title: G Pages: 1 -->
<svg width="524pt" height="443pt"
 viewBox="0.00 0.00 524.00 442.67" xmlns="http://www.w3.org/2000/svg" xmlns:xlink="http://www.w3.org/1999/xlink">
<g id="graph0" class="graph" transform="scale(1.33333 1.33333) rotate(0) translate(4 328)">
<title>G</title>
<polygon fill="white" stroke="none" points="-4,4 -4,-328 389,-328 389,4 -4,4"/>
<!-- Server_s1 -->
<g id="node1" class="node"><title>Server_s1</title>
<ellipse fill="none" stroke="black" cx="191" cy="-306" rx="46.1964" ry="18"/>
<text text-anchor="middle" x="191" y="-302.3" font-family="Times,serif" font-size="14.00">Server_s1</text>
</g>
<!-- Router_r1 -->
<g id="node2" class="node"><title>Router_r1</title>
<ellipse fill="none" stroke="black" cx="70" cy="-234" rx="47.169" ry="18"/>
<text text-anchor="middle" x="70" y="-230.3" font-family="Times,serif" font-size="14.00">Router_r1</text>
</g>
<!-- Server_s1&#45;&gt;Router_r1 -->
<g id="edge1" class="edge"><title>Server_s1&#45;&gt;Router_r1</title>
<path fill="none" stroke="black" d="M166.222,-290.666C148.234,-280.26 123.684,-266.057 103.883,-254.602"/>
<polygon fill="black" stroke="black" points="105.569,-251.534 95.1608,-249.556 102.064,-257.593 105.569,-251.534"/>
</g>
<!-- Router_r2 -->
<g id="node3" class="node"><title>Router_r2</title>
<ellipse fill="none" stroke="black" cx="191" cy="-234" rx="47.169" ry="18"/>
<text text-anchor="middle" x="191" y="-230.3" font-family="Times,serif" font-size="14.00">Router_r2</text>
</g>
<!-- Server_s1&#45;&gt;Router_r2 -->
<g id="edge2" class="edge"><title>Server_s1&#45;&gt;Router_r2</title>
<path fill="none" stroke="black" d="M191,-287.697C191,-279.983 191,-270.712 191,-262.112"/>
<polygon fill="black" stroke="black" points="194.5,-262.104 191,-252.104 187.5,-262.104 194.5,-262.104"/>
</g>
<!-- Router_r4 -->
<g id="node4" class="node"><title>Router_r4</title>
<ellipse fill="none" stroke="black" cx="312" cy="-234" rx="47.169" ry="18"/>
<text text-anchor="middle" x="312" y="-230.3" font-family="Times,serif" font-size="14.00">Router_r4</text>
</g>
<!-- Server_s1&#45;&gt;Router_r4 -->
<g id="edge3" class="edge"><title>Server_s1&#45;&gt;Router_r4</title>
<path fill="none" stroke="black" d="M215.778,-290.666C233.766,-280.26 258.316,-266.057 278.117,-254.602"/>
<polygon fill="black" stroke="black" points="279.936,-257.593 286.839,-249.556 276.431,-251.534 279.936,-257.593"/>
</g>
<!-- Router_r3 -->
<g id="node10" class="node"><title>Router_r3</title>
<ellipse fill="none" stroke="black" cx="66" cy="-162" rx="47.169" ry="18"/>
<text text-anchor="middle" x="66" y="-158.3" font-family="Times,serif" font-size="14.00">Router_r3</text>
</g>
<!-- Router_r1&#45;&gt;Router_r3 -->
<g id="edge7" class="edge"><title>Router_r1&#45;&gt;Router_r3</title>
<path fill="none" stroke="black" d="M69.0112,-215.697C68.5704,-207.983 68.0407,-198.712 67.5493,-190.112"/>
<polygon fill="black" stroke="black" points="71.0423,-189.888 66.9774,-180.104 64.0537,-190.288 71.0423,-189.888"/>
</g>
<!-- Router_r6 -->
<g id="node6" class="node"><title>Router_r6</title>
<ellipse fill="none" stroke="black" cx="191" cy="-162" rx="47.169" ry="18"/>
<text text-anchor="middle" x="191" y="-158.3" font-family="Times,serif" font-size="14.00">Router_r6</text>
</g>
<!-- Router_r2&#45;&gt;Router_r6 -->
<g id="edge9" class="edge"><title>Router_r2&#45;&gt;Router_r6</title>
<path fill="none" stroke="black" d="M191,-215.697C191,-207.983 191,-198.712 191,-190.112"/>
<polygon fill="black" stroke="black" points="194.5,-190.104 191,-180.104 187.5,-190.104 194.5,-190.104"/>
</g>
<!-- Computer_pc3 -->
<g id="node5" class="node"><title>Computer_pc3</title>
<ellipse fill="none" stroke="black" cx="321" cy="-162" rx="64.4914" ry="18"/>
<text text-anchor="middle" x="321" y="-158.3" font-family="Times,serif" font-size="14.00">Computer_pc3</text>
</g>
<!-- Router_r4&#45;&gt;Computer_pc3 -->
<g id="edge4" class="edge"><title>Router_r4&#45;&gt;Computer_pc3</title>
<path fill="none" stroke="black" d="M314.225,-215.697C315.217,-207.983 316.408,-198.712 317.514,-190.112"/>
<polygon fill="black" stroke="black" points="320.997,-190.469 318.801,-180.104 314.054,-189.576 320.997,-190.469"/>
</g>
<!-- Computer_pc2 -->
<g id="node7" class="node"><title>Computer_pc2</title>
<ellipse fill="none" stroke="black" cx="194" cy="-90" rx="64.4914" ry="18"/>
<text text-anchor="middle" x="194" y="-86.3" font-family="Times,serif" font-size="14.00">Computer_pc2</text>
</g>
<!-- Router_r6&#45;&gt;Computer_pc2 -->
<g id="edge5" class="edge"><title>Router_r6&#45;&gt;Computer_pc2</title>
<path fill="none" stroke="black" d="M191.742,-143.697C192.072,-135.983 192.469,-126.712 192.838,-118.112"/>
<polygon fill="black" stroke="black" points="196.335,-118.245 193.267,-108.104 189.342,-117.945 196.335,-118.245"/>
</g>
<!-- Router_r5 -->
<g id="node8" class="node"><title>Router_r5</title>
<ellipse fill="none" stroke="black" cx="64" cy="-90" rx="47.169" ry="18"/>
<text text-anchor="middle" x="64" y="-86.3" font-family="Times,serif" font-size="14.00">Router_r5</text>
</g>
<!-- Computer_pc1 -->
<g id="node9" class="node"><title>Computer_pc1</title>
<ellipse fill="none" stroke="black" cx="64" cy="-18" rx="64.4914" ry="18"/>
<text text-anchor="middle" x="64" y="-14.3" font-family="Times,serif" font-size="14.00">Computer_pc1</text>
</g>
<!-- Router_r5&#45;&gt;Computer_pc1 -->
<g id="edge6" class="edge"><title>Router_r5&#45;&gt;Computer_pc1</title>
<path fill="none" stroke="black" d="M64,-71.6966C64,-63.9827 64,-54.7125 64,-46.1124"/>
<polygon fill="black" stroke="black" points="67.5001,-46.1043 64,-36.1043 60.5001,-46.1044 67.5001,-46.1043"/>
</g>
<!-- Router_r3&#45;&gt;Router_r5 -->
<g id="edge8" class="edge"><title>Router_r3&#45;&gt;Router_r5</title>
<path fill="none" stroke="black" d="M65.5056,-143.697C65.2852,-135.983 65.0204,-126.712 64.7746,-118.112"/>
<polygon fill="black" stroke="black" points="68.273,-118 64.4887,-108.104 61.2758,-118.2 68.273,-118"/>
</g>
</g>
</svg>
