<?xml version="1.0" encoding="UTF-8" standalone="no"?>
<!DOCTYPE svg PUBLIC "-//W3C//DTD SVG 1.1//EN"
 "http://www.w3.org/Graphics/SVG/1.1/DTD/svg11.dtd">
<!-- Generated by graphviz version 2.36.0 (20140111.2315)
 -->
<!-- Title: G Pages: 1 -->
<svg width="511pt" height="443pt"
 viewBox="0.00 0.00 510.67 442.67" xmlns="http://www.w3.org/2000/svg" xmlns:xlink="http://www.w3.org/1999/xlink">
<g id="graph0" class="graph" transform="scale(1.33333 1.33333) rotate(0) translate(4 328)">
<title>G</title>
<polygon fill="white" stroke="none" points="-4,4 -4,-328 379,-328 379,4 -4,4"/>
<!-- Server_s1 -->
<g id="node1" class="node"><title>Server_s1</title>
<ellipse fill="none" stroke="black" cx="186" cy="-306" rx="45.2082" ry="18"/>
<text text-anchor="middle" x="186" y="-301.8" font-family="Times,serif" font-size="14.00">Server_s1</text>
</g>
<!-- Router_r1 -->
<g id="node2" class="node"><title>Router_r1</title>
<ellipse fill="none" stroke="black" cx="68" cy="-234" rx="45.4469" ry="18"/>
<text text-anchor="middle" x="68" y="-229.8" font-family="Times,serif" font-size="14.00">Router_r1</text>
</g>
<!-- Server_s1&#45;&gt;Router_r1 -->
<g id="edge1" class="edge"><title>Server_s1&#45;&gt;Router_r1</title>
<path fill="none" stroke="black" d="M161.836,-290.666C144.257,-280.237 120.25,-265.996 100.92,-254.529"/>
<polygon fill="black" stroke="black" points="102.518,-251.407 92.1315,-249.315 98.9463,-257.428 102.518,-251.407"/>
</g>
<!-- Router_r2 -->
<g id="node3" class="node"><title>Router_r2</title>
<ellipse fill="none" stroke="black" cx="186" cy="-234" rx="45.4469" ry="18"/>
<text text-anchor="middle" x="186" y="-229.8" font-family="Times,serif" font-size="14.00">Router_r2</text>
</g>
<!-- Server_s1&#45;&gt;Router_r2 -->
<g id="edge2" class="edge"><title>Server_s1&#45;&gt;Router_r2</title>
<path fill="none" stroke="black" d="M186,-287.697C186,-279.983 186,-270.712 186,-262.112"/>
<polygon fill="black" stroke="black" points="189.5,-262.104 186,-252.104 182.5,-262.104 189.5,-262.104"/>
</g>
<!-- Router_r4 -->
<g id="node4" class="node"><title>Router_r4</title>
<ellipse fill="none" stroke="black" cx="304" cy="-234" rx="45.4469" ry="18"/>
<text text-anchor="middle" x="304" y="-229.8" font-family="Times,serif" font-size="14.00">Router_r4</text>
</g>
<!-- Server_s1&#45;&gt;Router_r4 -->
<g id="edge3" class="edge"><title>Server_s1&#45;&gt;Router_r4</title>
<path fill="none" stroke="black" d="M210.164,-290.666C227.743,-280.237 251.75,-265.996 271.08,-254.529"/>
<polygon fill="black" stroke="black" points="273.054,-257.428 279.869,-249.315 269.482,-251.407 273.054,-257.428"/>
</g>
<!-- Router_r3 -->
<g id="node10" class="node"><title>Router_r3</title>
<ellipse fill="none" stroke="black" cx="64" cy="-162" rx="45.4469" ry="18"/>
<text text-anchor="middle" x="64" y="-157.8" font-family="Times,serif" font-size="14.00">Router_r3</text>
</g>
<!-- Router_r1&#45;&gt;Router_r3 -->
<g id="edge7" class="edge"><title>Router_r1&#45;&gt;Router_r3</title>
<path fill="none" stroke="black" d="M67.0112,-215.697C66.5704,-207.983 66.0407,-198.712 65.5493,-190.112"/>
<polygon fill="black" stroke="black" points="69.0423,-189.888 64.9774,-180.104 62.0537,-190.288 69.0423,-189.888"/>
</g>
<!-- Router_r6 -->
<g id="node6" class="node"><title>Router_r6</title>
<ellipse fill="none" stroke="black" cx="186" cy="-162" rx="45.4469" ry="18"/>
<text text-anchor="middle" x="186" y="-157.8" font-family="Times,serif" font-size="14.00">Router_r6</text>
</g>
<!-- Router_r2&#45;&gt;Router_r6 -->
<g id="edge9" class="edge"><title>Router_r2&#45;&gt;Router_r6</title>
<path fill="none" stroke="black" d="M186,-215.697C186,-207.983 186,-198.712 186,-190.112"/>
<polygon fill="black" stroke="black" points="189.5,-190.104 186,-180.104 182.5,-190.104 189.5,-190.104"/>
</g>
<!-- Computer_pc3 -->
<g id="node5" class="node"><title>Computer_pc3</title>
<ellipse fill="none" stroke="black" cx="313" cy="-162" rx="62.4996" ry="18"/>
<text text-anchor="middle" x="313" y="-157.8" font-family="Times,serif" font-size="14.00">Computer_pc3</text>
</g>
<!-- Router_r4&#45;&gt;Computer_pc3 -->
<g id="edge4" class="edge"><title>Router_r4&#45;&gt;Computer_pc3</title>
<path fill="none" stroke="black" d="M306.225,-215.697C307.217,-207.983 308.408,-198.712 309.514,-190.112"/>
<polygon fill="black" stroke="black" points="312.997,-190.469 310.801,-180.104 306.054,-189.576 312.997,-190.469"/>
</g>
<!-- Computer_pc2 -->
<g id="node7" class="node"><title>Computer_pc2</title>
<ellipse fill="none" stroke="black" cx="189" cy="-90" rx="62.4996" ry="18"/>
<text text-anchor="middle" x="189" y="-85.8" font-family="Times,serif" font-size="14.00">Computer_pc2</text>
</g>
<!-- Router_r6&#45;&gt;Computer_pc2 -->
<g id="edge5" class="edge"><title>Router_r6&#45;&gt;Computer_pc2</title>
<path fill="none" stroke="black" d="M186.742,-143.697C187.072,-135.983 187.469,-126.712 187.838,-118.112"/>
<polygon fill="black" stroke="black" points="191.335,-118.245 188.267,-108.104 184.342,-117.945 191.335,-118.245"/>
</g>
<!-- Router_r5 -->
<g id="node8" class="node"><title>Router_r5</title>
<ellipse fill="none" stroke="black" cx="62" cy="-90" rx="45.4469" ry="18"/>
<text text-anchor="middle" x="62" y="-85.8" font-family="Times,serif" font-size="14.00">Router_r5</text>
</g>
<!-- Computer_pc1 -->
<g id="node9" class="node"><title>Computer_pc1</title>
<ellipse fill="none" stroke="black" cx="62" cy="-18" rx="62.4996" ry="18"/>
<text text-anchor="middle" x="62" y="-13.8" font-family="Times,serif" font-size="14.00">Computer_pc1</text>
</g>
<!-- Router_r5&#45;&gt;Computer_pc1 -->
<g id="edge6" class="edge"><title>Router_r5&#45;&gt;Computer_pc1</title>
<path fill="none" stroke="black" d="M62,-71.6966C62,-63.9827 62,-54.7125 62,-46.1124"/>
<polygon fill="black" stroke="black" points="65.5001,-46.1043 62,-36.1043 58.5001,-46.1044 65.5001,-46.1043"/>
</g>
<!-- Router_r3&#45;&gt;Router_r5 -->
<g id="edge8" class="edge"><title>Router_r3&#45;&gt;Router_r5</title>
<path fill="none" stroke="black" d="M63.5056,-143.697C63.2852,-135.983 63.0204,-126.712 62.7746,-118.112"/>
<polygon fill="black" stroke="black" points="66.273,-118 62.4887,-108.104 59.2758,-118.2 66.273,-118"/>
</g>
</g>
</svg>
