<?xml version="1.0" encoding="UTF-8" standalone="no"?>
<!DOCTYPE svg PUBLIC "-//W3C//DTD SVG 1.1//EN"
 "http://www.w3.org/Graphics/SVG/1.1/DTD/svg11.dtd">
<!-- Generated by graphviz version 2.36.0 (20140111.2315)
 -->
<!-- Title: G Pages: 1 -->
<svg width="425pt" height="443pt"
 viewBox="0.00 0.00 425.33 442.67" xmlns="http://www.w3.org/2000/svg" xmlns:xlink="http://www.w3.org/1999/xlink">
<g id="graph0" class="graph" transform="scale(1.33333 1.33333) rotate(0) translate(4 328)">
<title>G</title>
<polygon fill="white" stroke="none" points="-4,4 -4,-328 315,-328 315,4 -4,4"/>
<!-- Server_s1 -->
<g id="node1" class="node"><title>Server_s1</title>
<ellipse fill="none" stroke="black" cx="45" cy="-234" rx="45.2082" ry="18"/>
<text text-anchor="middle" x="45" y="-229.8" font-family="Times,serif" font-size="14.00">Server_s1</text>
</g>
<!-- Router_r1 -->
<g id="node2" class="node"><title>Router_r1</title>
<ellipse fill="none" stroke="black" cx="45" cy="-162" rx="45.4469" ry="18"/>
<text text-anchor="middle" x="45" y="-157.8" font-family="Times,serif" font-size="14.00">Router_r1</text>
</g>
<!-- Server_s1&#45;&gt;Router_r1 -->
<g id="edge1" class="edge"><title>Server_s1&#45;&gt;Router_r1</title>
<path fill="none" stroke="black" d="M45,-215.697C45,-207.983 45,-198.712 45,-190.112"/>
<polygon fill="black" stroke="black" points="48.5001,-190.104 45,-180.104 41.5001,-190.104 48.5001,-190.104"/>
</g>
<!-- Router_r4 -->
<g id="node7" class="node"><title>Router_r4</title>
<ellipse fill="none" stroke="black" cx="45" cy="-90" rx="45.4469" ry="18"/>
<text text-anchor="middle" x="45" y="-85.8" font-family="Times,serif" font-size="14.00">Router_r4</text>
</g>
<!-- Router_r1&#45;&gt;Router_r4 -->
<g id="edge7" class="edge"><title>Router_r1&#45;&gt;Router_r4</title>
<path fill="none" stroke="black" d="M45,-143.697C45,-135.983 45,-126.712 45,-118.112"/>
<polygon fill="black" stroke="black" points="48.5001,-118.104 45,-108.104 41.5001,-118.104 48.5001,-118.104"/>
</g>
<!-- Server_s2 -->
<g id="node3" class="node"><title>Server_s2</title>
<ellipse fill="none" stroke="black" cx="155" cy="-162" rx="45.2082" ry="18"/>
<text text-anchor="middle" x="155" y="-157.8" font-family="Times,serif" font-size="14.00">Server_s2</text>
</g>
<!-- Router_r5 -->
<g id="node4" class="node"><title>Router_r5</title>
<ellipse fill="none" stroke="black" cx="155" cy="-90" rx="45.4469" ry="18"/>
<text text-anchor="middle" x="155" y="-85.8" font-family="Times,serif" font-size="14.00">Router_r5</text>
</g>
<!-- Server_s2&#45;&gt;Router_r5 -->
<g id="edge2" class="edge"><title>Server_s2&#45;&gt;Router_r5</title>
<path fill="none" stroke="black" d="M155,-143.697C155,-135.983 155,-126.712 155,-118.112"/>
<polygon fill="black" stroke="black" points="158.5,-118.104 155,-108.104 151.5,-118.104 158.5,-118.104"/>
</g>
<!-- Computer_pc1 -->
<g id="node8" class="node"><title>Computer_pc1</title>
<ellipse fill="none" stroke="black" cx="155" cy="-18" rx="62.4996" ry="18"/>
<text text-anchor="middle" x="155" y="-13.8" font-family="Times,serif" font-size="14.00">Computer_pc1</text>
</g>
<!-- Router_r5&#45;&gt;Computer_pc1 -->
<g id="edge5" class="edge"><title>Router_r5&#45;&gt;Computer_pc1</title>
<path fill="none" stroke="black" d="M155,-71.6966C155,-63.9827 155,-54.7125 155,-46.1124"/>
<polygon fill="black" stroke="black" points="158.5,-46.1043 155,-36.1043 151.5,-46.1044 158.5,-46.1043"/>
</g>
<!-- Server_s3 -->
<g id="node5" class="node"><title>Server_s3</title>
<ellipse fill="none" stroke="black" cx="265" cy="-306" rx="45.2082" ry="18"/>
<text text-anchor="middle" x="265" y="-301.8" font-family="Times,serif" font-size="14.00">Server_s3</text>
</g>
<!-- Router_r2 -->
<g id="node6" class="node"><title>Router_r2</title>
<ellipse fill="none" stroke="black" cx="265" cy="-234" rx="45.4469" ry="18"/>
<text text-anchor="middle" x="265" y="-229.8" font-family="Times,serif" font-size="14.00">Router_r2</text>
</g>
<!-- Server_s3&#45;&gt;Router_r2 -->
<g id="edge3" class="edge"><title>Server_s3&#45;&gt;Router_r2</title>
<path fill="none" stroke="black" d="M265,-287.697C265,-279.983 265,-270.712 265,-262.112"/>
<polygon fill="black" stroke="black" points="268.5,-262.104 265,-252.104 261.5,-262.104 268.5,-262.104"/>
</g>
<!-- Router_r3 -->
<g id="node10" class="node"><title>Router_r3</title>
<ellipse fill="none" stroke="black" cx="265" cy="-162" rx="45.4469" ry="18"/>
<text text-anchor="middle" x="265" y="-157.8" font-family="Times,serif" font-size="14.00">Router_r3</text>
</g>
<!-- Router_r2&#45;&gt;Router_r3 -->
<g id="edge8" class="edge"><title>Router_r2&#45;&gt;Router_r3</title>
<path fill="none" stroke="black" d="M265,-215.697C265,-207.983 265,-198.712 265,-190.112"/>
<polygon fill="black" stroke="black" points="268.5,-190.104 265,-180.104 261.5,-190.104 268.5,-190.104"/>
</g>
<!-- Router_r4&#45;&gt;Computer_pc1 -->
<g id="edge4" class="edge"><title>Router_r4&#45;&gt;Computer_pc1</title>
<path fill="none" stroke="black" d="M68.0596,-74.3257C83.6174,-64.4253 104.393,-51.2043 121.734,-40.1692"/>
<polygon fill="black" stroke="black" points="123.886,-42.9486 130.443,-34.627 120.128,-37.043 123.886,-42.9486"/>
</g>
<!-- Router_r6 -->
<g id="node9" class="node"><title>Router_r6</title>
<ellipse fill="none" stroke="black" cx="265" cy="-90" rx="45.4469" ry="18"/>
<text text-anchor="middle" x="265" y="-85.8" font-family="Times,serif" font-size="14.00">Router_r6</text>
</g>
<!-- Router_r6&#45;&gt;Computer_pc1 -->
<g id="edge6" class="edge"><title>Router_r6&#45;&gt;Computer_pc1</title>
<path fill="none" stroke="black" d="M241.94,-74.3257C226.383,-64.4253 205.607,-51.2043 188.266,-40.1692"/>
<polygon fill="black" stroke="black" points="189.872,-37.043 179.557,-34.627 186.114,-42.9486 189.872,-37.043"/>
</g>
<!-- Router_r3&#45;&gt;Router_r6 -->
<g id="edge9" class="edge"><title>Router_r3&#45;&gt;Router_r6</title>
<path fill="none" stroke="black" d="M265,-143.697C265,-135.983 265,-126.712 265,-118.112"/>
<polygon fill="black" stroke="black" points="268.5,-118.104 265,-108.104 261.5,-118.104 268.5,-118.104"/>
</g>
</g>
</svg>
