<?xml version="1.0" encoding="UTF-8" standalone="no"?>
<!DOCTYPE svg PUBLIC "-//W3C//DTD SVG 1.1//EN"
 "http://www.w3.org/Graphics/SVG/1.1/DTD/svg11.dtd">
<!-- Generated by graphviz version 2.36.0 (20140111.2315)
 -->
<!-- Title: G Pages: 1 -->
<svg width="439pt" height="443pt"
 viewBox="0.00 0.00 438.67 442.67" xmlns="http://www.w3.org/2000/svg" xmlns:xlink="http://www.w3.org/1999/xlink">
<g id="graph0" class="graph" transform="scale(1.33333 1.33333) rotate(0) translate(4 328)">
<title>G</title>
<polygon fill="white" stroke="none" points="-4,4 -4,-328 325,-328 325,4 -4,4"/>
<!-- Server_s1 -->
<g id="node1" class="node"><title>Server_s1</title>
<ellipse fill="none" stroke="black" cx="47" cy="-234" rx="46.1964" ry="18"/>
<text text-anchor="middle" x="47" y="-230.3" font-family="Times,serif" font-size="14.00">Server_s1</text>
</g>
<!-- Router_r1 -->
<g id="node2" class="node"><title>Router_r1</title>
<ellipse fill="none" stroke="black" cx="47" cy="-162" rx="47.169" ry="18"/>
<text text-anchor="middle" x="47" y="-158.3" font-family="Times,serif" font-size="14.00">Router_r1</text>
</g>
<!-- Server_s1&#45;&gt;Router_r1 -->
<g id="edge1" class="edge"><title>Server_s1&#45;&gt;Router_r1</title>
<path fill="none" stroke="black" d="M47,-215.697C47,-207.983 47,-198.712 47,-190.112"/>
<polygon fill="black" stroke="black" points="50.5001,-190.104 47,-180.104 43.5001,-190.104 50.5001,-190.104"/>
</g>
<!-- Router_r4 -->
<g id="node7" class="node"><title>Router_r4</title>
<ellipse fill="none" stroke="black" cx="47" cy="-90" rx="47.169" ry="18"/>
<text text-anchor="middle" x="47" y="-86.3" font-family="Times,serif" font-size="14.00">Router_r4</text>
</g>
<!-- Router_r1&#45;&gt;Router_r4 -->
<g id="edge7" class="edge"><title>Router_r1&#45;&gt;Router_r4</title>
<path fill="none" stroke="black" d="M47,-143.697C47,-135.983 47,-126.712 47,-118.112"/>
<polygon fill="black" stroke="black" points="50.5001,-118.104 47,-108.104 43.5001,-118.104 50.5001,-118.104"/>
</g>
<!-- Server_s2 -->
<g id="node3" class="node"><title>Server_s2</title>
<ellipse fill="none" stroke="black" cx="160" cy="-162" rx="46.1964" ry="18"/>
<text text-anchor="middle" x="160" y="-158.3" font-family="Times,serif" font-size="14.00">Server_s2</text>
</g>
<!-- Router_r5 -->
<g id="node4" class="node"><title>Router_r5</title>
<ellipse fill="none" stroke="black" cx="160" cy="-90" rx="47.169" ry="18"/>
<text text-anchor="middle" x="160" y="-86.3" font-family="Times,serif" font-size="14.00">Router_r5</text>
</g>
<!-- Server_s2&#45;&gt;Router_r5 -->
<g id="edge2" class="edge"><title>Server_s2&#45;&gt;Router_r5</title>
<path fill="none" stroke="black" d="M160,-143.697C160,-135.983 160,-126.712 160,-118.112"/>
<polygon fill="black" stroke="black" points="163.5,-118.104 160,-108.104 156.5,-118.104 163.5,-118.104"/>
</g>
<!-- Computer_pc1 -->
<g id="node8" class="node"><title>Computer_pc1</title>
<ellipse fill="none" stroke="black" cx="160" cy="-18" rx="64.4914" ry="18"/>
<text text-anchor="middle" x="160" y="-14.3" font-family="Times,serif" font-size="14.00">Computer_pc1</text>
</g>
<!-- Router_r5&#45;&gt;Computer_pc1 -->
<g id="edge5" class="edge"><title>Router_r5&#45;&gt;Computer_pc1</title>
<path fill="none" stroke="black" d="M160,-71.6966C160,-63.9827 160,-54.7125 160,-46.1124"/>
<polygon fill="black" stroke="black" points="163.5,-46.1043 160,-36.1043 156.5,-46.1044 163.5,-46.1043"/>
</g>
<!-- Server_s3 -->
<g id="node5" class="node"><title>Server_s3</title>
<ellipse fill="none" stroke="black" cx="273" cy="-306" rx="46.1964" ry="18"/>
<text text-anchor="middle" x="273" y="-302.3" font-family="Times,serif" font-size="14.00">Server_s3</text>
</g>
<!-- Router_r2 -->
<g id="node6" class="node"><title>Router_r2</title>
<ellipse fill="none" stroke="black" cx="273" cy="-234" rx="47.169" ry="18"/>
<text text-anchor="middle" x="273" y="-230.3" font-family="Times,serif" font-size="14.00">Router_r2</text>
</g>
<!-- Server_s3&#45;&gt;Router_r2 -->
<g id="edge3" class="edge"><title>Server_s3&#45;&gt;Router_r2</title>
<path fill="none" stroke="black" d="M273,-287.697C273,-279.983 273,-270.712 273,-262.112"/>
<polygon fill="black" stroke="black" points="276.5,-262.104 273,-252.104 269.5,-262.104 276.5,-262.104"/>
</g>
<!-- Router_r3 -->
<g id="node10" class="node"><title>Router_r3</title>
<ellipse fill="none" stroke="black" cx="273" cy="-162" rx="47.169" ry="18"/>
<text text-anchor="middle" x="273" y="-158.3" font-family="Times,serif" font-size="14.00">Router_r3</text>
</g>
<!-- Router_r2&#45;&gt;Router_r3 -->
<g id="edge8" class="edge"><title>Router_r2&#45;&gt;Router_r3</title>
<path fill="none" stroke="black" d="M273,-215.697C273,-207.983 273,-198.712 273,-190.112"/>
<polygon fill="black" stroke="black" points="276.5,-190.104 273,-180.104 269.5,-190.104 276.5,-190.104"/>
</g>
<!-- Router_r4&#45;&gt;Computer_pc1 -->
<g id="edge4" class="edge"><title>Router_r4&#45;&gt;Computer_pc1</title>
<path fill="none" stroke="black" d="M70.6885,-74.3257C86.6706,-64.4253 108.013,-51.2043 125.827,-40.1692"/>
<polygon fill="black" stroke="black" points="128.116,-42.8686 134.774,-34.627 124.429,-36.9178 128.116,-42.8686"/>
</g>
<!-- Router_r6 -->
<g id="node9" class="node"><title>Router_r6</title>
<ellipse fill="none" stroke="black" cx="273" cy="-90" rx="47.169" ry="18"/>
<text text-anchor="middle" x="273" y="-86.3" font-family="Times,serif" font-size="14.00">Router_r6</text>
</g>
<!-- Router_r6&#45;&gt;Computer_pc1 -->
<g id="edge6" class="edge"><title>Router_r6&#45;&gt;Computer_pc1</title>
<path fill="none" stroke="black" d="M249.311,-74.3257C233.329,-64.4253 211.987,-51.2043 194.173,-40.1692"/>
<polygon fill="black" stroke="black" points="195.571,-36.9178 185.226,-34.627 191.884,-42.8686 195.571,-36.9178"/>
</g>
<!-- Router_r3&#45;&gt;Router_r6 -->
<g id="edge9" class="edge"><title>Router_r3&#45;&gt;Router_r6</title>
<path fill="none" stroke="black" d="M273,-143.697C273,-135.983 273,-126.712 273,-118.112"/>
<polygon fill="black" stroke="black" points="276.5,-118.104 273,-108.104 269.5,-118.104 276.5,-118.104"/>
</g>
</g>
</svg>
