<?xml version="1.0" encoding="UTF-8" standalone="no"?>
<!DOCTYPE svg PUBLIC "-//W3C//DTD SVG 1.1//EN"
 "http://www.w3.org/Graphics/SVG/1.1/DTD/svg11.dtd">
<!-- Generated by graphviz version 2.36.0 (20140111.2315)
 -->
<!-- Title: G Pages: 1 -->
<svg width="356pt" height="347pt"
 viewBox="0.00 0.00 356.00 346.67" xmlns="http://www.w3.org/2000/svg" xmlns:xlink="http://www.w3.org/1999/xlink">
<g id="graph0" class="graph" transform="scale(1.33333 1.33333) rotate(0) translate(4 256)">
<title>G</title>
<polygon fill="white" stroke="none" points="-4,4 -4,-256 263,-256 263,4 -4,4"/>
<!-- Router_r3 -->
<g id="node1" class="node"><title>Router_r3</title>
<ellipse fill="none" stroke="black" cx="122" cy="-162" rx="47.169" ry="18"/>
<text text-anchor="middle" x="122" y="-158.3" font-family="Times,serif" font-size="14.00">Router_r3</text>
</g>
<!-- Router_r1 -->
<g id="node2" class="node"><title>Router_r1</title>
<ellipse fill="none" stroke="black" cx="66" cy="-90" rx="47.169" ry="18"/>
<text text-anchor="middle" x="66" y="-86.3" font-family="Times,serif" font-size="14.00">Router_r1</text>
</g>
<!-- Router_r3&#45;&gt;Router_r1 -->
<g id="edge1" class="edge"><title>Router_r3&#45;&gt;Router_r1</title>
<path fill="none" stroke="black" d="M108.729,-144.411C101.824,-135.781 93.2497,-125.062 85.5977,-115.497"/>
<polygon fill="black" stroke="black" points="88.156,-113.092 79.176,-107.47 82.6899,-117.465 88.156,-113.092"/>
</g>
<!-- Router_r2 -->
<g id="node5" class="node"><title>Router_r2</title>
<ellipse fill="none" stroke="black" cx="192" cy="-90" rx="47.169" ry="18"/>
<text text-anchor="middle" x="192" y="-86.3" font-family="Times,serif" font-size="14.00">Router_r2</text>
</g>
<!-- Router_r3&#45;&gt;Router_r2 -->
<g id="edge5" class="edge"><title>Router_r3&#45;&gt;Router_r2</title>
<path fill="none" stroke="black" d="M138.235,-144.765C147.247,-135.753 158.615,-124.385 168.574,-114.426"/>
<polygon fill="black" stroke="black" points="171.256,-116.693 175.853,-107.147 166.307,-111.744 171.256,-116.693"/>
</g>
<!-- Computer_c1 -->
<g id="node3" class="node"><title>Computer_c1</title>
<ellipse fill="none" stroke="black" cx="60" cy="-18" rx="60.1672" ry="18"/>
<text text-anchor="middle" x="60" y="-14.3" font-family="Times,serif" font-size="14.00">Computer_c1</text>
</g>
<!-- Router_r1&#45;&gt;Computer_c1 -->
<g id="edge2" class="edge"><title>Router_r1&#45;&gt;Computer_c1</title>
<path fill="none" stroke="black" d="M64.5169,-71.6966C63.8557,-63.9827 63.0611,-54.7125 62.3239,-46.1124"/>
<polygon fill="black" stroke="black" points="65.8074,-45.7689 61.4661,-36.1043 58.833,-46.3667 65.8074,-45.7689"/>
</g>
<!-- Server_s1 -->
<g id="node4" class="node"><title>Server_s1</title>
<ellipse fill="none" stroke="black" cx="66" cy="-234" rx="46.1964" ry="18"/>
<text text-anchor="middle" x="66" y="-230.3" font-family="Times,serif" font-size="14.00">Server_s1</text>
</g>
<!-- Server_s1&#45;&gt;Router_r3 -->
<g id="edge3" class="edge"><title>Server_s1&#45;&gt;Router_r3</title>
<path fill="none" stroke="black" d="M79.2712,-216.411C86.1756,-207.781 94.7503,-197.062 102.402,-187.497"/>
<polygon fill="black" stroke="black" points="105.31,-189.465 108.824,-179.47 99.844,-185.092 105.31,-189.465"/>
</g>
<!-- Computer_c2 -->
<g id="node6" class="node"><title>Computer_c2</title>
<ellipse fill="none" stroke="black" cx="199" cy="-18" rx="60.1672" ry="18"/>
<text text-anchor="middle" x="199" y="-14.3" font-family="Times,serif" font-size="14.00">Computer_c2</text>
</g>
<!-- Router_r2&#45;&gt;Computer_c2 -->
<g id="edge4" class="edge"><title>Router_r2&#45;&gt;Computer_c2</title>
<path fill="none" stroke="black" d="M193.73,-71.6966C194.502,-63.9827 195.429,-54.7125 196.289,-46.1124"/>
<polygon fill="black" stroke="black" points="199.777,-46.403 197.29,-36.1043 192.812,-45.7064 199.777,-46.403"/>
</g>
<!-- Server_s2 -->
<g id="node7" class="node"><title>Server_s2</title>
<ellipse fill="none" stroke="black" cx="178" cy="-234" rx="46.1964" ry="18"/>
<text text-anchor="middle" x="178" y="-230.3" font-family="Times,serif" font-size="14.00">Server_s2</text>
</g>
<!-- Server_s2&#45;&gt;Router_r3 -->
<g id="edge6" class="edge"><title>Server_s2&#45;&gt;Router_r3</title>
<path fill="none" stroke="black" d="M164.729,-216.411C157.824,-207.781 149.25,-197.062 141.598,-187.497"/>
<polygon fill="black" stroke="black" points="144.156,-185.092 135.176,-179.47 138.69,-189.465 144.156,-185.092"/>
</g>
</g>
</svg>
